<?xml version="1.0" encoding="utf-8"?>
<!-- Generator: Adobe Illustrator 24.0.2, SVG Export Plug-In . SVG Version: 6.00 Build 0)  -->
<svg version="1.1" id="Capa_1" xmlns="http://www.w3.org/2000/svg" xmlns:xlink="http://www.w3.org/1999/xlink" x="0px" y="0px"
	 viewBox="0 0 741 149" style="enable-background:new 0 0 741 149;" xml:space="preserve">
<style type="text/css">
	.st0{fill:#FFFFFF;}
</style>
<g>
	<path d="M6.3,142.7v-19.1c2.3,0.6,4.6,0.8,6.9,0.8c8.4,0,12.4-4,12.4-12.8V8.7h21.1v102.2c0,22-10,32.5-30.6,32.5
		C12.2,143.4,9.4,143.2,6.3,142.7z"/>
	<path d="M61,110.9V8.7h21.1v103.7c0,9.6,4,13,10.7,13s10.7-3.4,10.7-13V8.7h20.3v102.2c0,21.4-10.7,33.7-31.4,33.7
		C71.8,144.6,61,132.3,61,110.9z"/>
	<path d="M138.7,8.7h26.4l20.5,80.2h0.4V8.7h18.8v134h-21.6l-25.3-97.8h-0.4v97.8h-18.8L138.7,8.7L138.7,8.7z"/>
	<path d="M236.9,27.8h-22V8.7H280v19.1h-22v114.8h-21.1V27.8z"/>
	<path d="M287.8,110.9V40.5c0-21.4,11.3-33.7,32-33.7s32,12.2,32,33.7v70.4c0,21.4-11.3,33.7-32,33.7
		C299.1,144.6,287.8,132.3,287.8,110.9z M330.7,112.2V39.1c0-9.6-4.2-13.2-10.9-13.2s-10.9,3.6-10.9,13.2v73.1
		c0,9.6,4.2,13.2,10.9,13.2S330.7,121.8,330.7,112.2z"/>
	<path d="M362.3,110.9v-7.7h19.9v9.2c0,9.6,4.2,13,10.9,13S404,122,404,112c0-11.1-4.2-18.2-18-30.2c-17.6-15.5-23.3-26.4-23.3-41.7
		c0-21.1,10.9-33.3,31.4-33.3s30.6,12.2,30.6,33.7V46h-19.9v-6.9c0-9.6-3.8-13.2-10.5-13.2s-10.5,3.6-10.5,12.8
		c0,9.8,4.4,16.8,18.2,28.9c17.6,15.5,23.2,26.2,23.2,42.9c0,21.8-11.1,34.1-31.8,34.1C372.6,144.6,362.3,132.3,362.3,110.9z"/>
</g>
<g>
	<path d="M485.2,85.6L459.7,8.7h22.4l14.4,49.2h0.4l14.4-49.2h20.5l-25.5,76.9v57h-21.1L485.2,85.6L485.2,85.6z"/>
	<path d="M548.7,8.7h28.5l21.8,134h-21l-3.8-26.6v0.4h-23.9l-3.8,26.2H527L548.7,8.7z M571.7,98.3L562.3,32h-0.4l-9.2,66.2h19V98.3z
		"/>
	<path d="M609.2,8.7h30l13.4,95.9h0.4l13.4-95.9h30v134h-19.9V41.2h-0.4l-15.3,101.4h-17.6L628,41.2h-0.4v101.4h-18.4L609.2,8.7
		L609.2,8.7z"/>
	<path d="M712.2,8.7h21.1v134h-21.1V8.7z"/>
</g>
<g>
	<path class="st0" d="M401.2,49.2c1.2,0,2.4,0.4,3.3,1.3c1,0.8,1.8,1.9,2.5,3.1c0.7,1.2,1.2,2.6,1.6,4.1s0.7,2.9,0.8,4.2
		c0.4-0.7,0.7-1.3,1-1.9c0.3-0.6,0.6-1.2,0.9-2c0.3-0.7,0.6-1.5,1-2.3c0.3-0.8,0.7-1.6,1-2.4c0.7-1.6,1.4-2.9,2.2-4
		c0.7-1.1,1.5-1.7,2.2-1.7c2,0,3.8,0.9,5.5,2.7s3.3,3.9,4.6,6.4c1.3,2.5,2.4,5,3.2,7.7s1.2,4.8,1.2,6.5c0,2.5-0.4,5.5-1.1,9
		c-0.7,3.4-1.9,6.7-3.3,9.8c-1.5,3.1-3.3,5.8-5.6,8c-2.2,2.2-4.9,3.3-7.9,3.3c-0.3,0-0.7,0-1,0c-0.4,0-0.7-0.1-1.1-0.1
		c-0.5,1-0.7,2.1-0.7,3.2c0,0.3,0,0.7,0,1s0.1,0.7,0.1,1c0.1,0.8,0.3,1.6,0.4,2.4s0.2,1.6,0.2,2.4c0,0.7,0,2-0.1,3.9
		c-0.1,2-0.2,4-0.4,6.1c-0.2,2.1-0.5,4-0.9,5.6c-0.4,1.6-1,2.4-1.6,2.4c-1.3,0-2.3-0.4-3.1-1.2c-0.8-0.8-1.5-1.7-2-2.9
		c-0.5-1.1-0.8-2.4-1-3.6s-0.3-2.4-0.3-3.5v-11.2c0-2.4,0.2-4.9,0.6-7.5s0.8-5.2,1.1-7.6c-0.3-0.8-0.5-2-0.6-3.4s-0.2-3.1-0.2-5
		c0-1.8,0-3.8,0-5.9s0-4.2-0.1-6.4c0-2.1-0.1-4.1-0.2-6.2c-0.1-2-0.3-3.9-0.6-5.6c-0.3-1.7-0.6-3.3-1.1-4.7s-1.1-2.4-1.9-3.1
		L401.2,49.2z M411.3,93.1c0,0.2,0,0.4,0,0.6s0,0.4,0,0.6c0.1,0.2,0.1,0.4,0.1,0.6s0.1,0.5,0.1,0.8c1.6-0.1,3-0.7,4.2-1.8
		c1.3-1,2.4-2.4,3.4-3.9s1.9-3.3,2.6-5.2c0.7-1.9,1.3-3.8,1.8-5.7c0.5-1.9,0.8-3.8,1.1-5.5c0.2-1.7,0.3-3.2,0.3-4.5
		c0-2.2-0.5-4.6-1.6-7.3c-1-2.6-2.3-4.9-3.8-6.8c-0.7,1.2-1.4,2.7-2.1,4.7s-1.3,4.1-1.9,6.5c-0.6,2.4-1.2,4.9-1.7,7.5
		s-1,5.1-1.4,7.5s-0.7,4.7-0.9,6.7S411.3,91.8,411.3,93.1z"/>
	<path class="st0" d="M435.4,82.7c0-1.4,0.2-3.4,0.6-5.8s1-5,1.7-7.8c0.8-2.8,1.7-5.6,2.7-8.4c1.1-2.8,2.3-5.4,3.7-7.7
		c1.4-2.3,2.9-4.2,4.5-5.6c1.6-1.4,3.3-2.2,5.1-2.2c0.4,0,0.9,0.2,1.5,0.5s1.2,0.7,1.8,1.2c0.6,0.5,1,1,1.5,1.5
		c0.4,0.5,0.6,1,0.6,1.4c0,0.3-0.1,0.9-0.4,1.7s-0.6,1.6-0.9,2.5s-0.7,1.8-1,2.7s-0.6,1.6-0.7,2c1.6,0.9,3.1,2.2,4.7,3.7
		c1.6,1.6,3,3.3,4.3,5.1c1.3,1.9,2.3,3.8,3.1,5.9c0.8,2.1,1.2,4,1.2,5.8c0,2.9-0.4,5.9-1.1,9.1c-0.8,3.2-1.9,6.1-3.5,8.8
		c-1.6,2.7-3.5,4.9-5.9,6.7c-2.4,1.8-5.2,2.6-8.4,2.6c-1.4,0-2.8-0.4-4.1-1.3c-1.3-0.8-2.5-1.9-3.7-3.3c-1.1-1.3-2.2-2.9-3-4.6
		c-0.9-1.7-1.7-3.5-2.3-5.2c-0.7-1.8-1.2-3.5-1.5-5.1C435.6,85.4,435.4,84,435.4,82.7z M443.2,86.5c0,0.8,0.1,2,0.4,3.5
		s0.7,2.9,1.3,4.3c0.6,1.4,1.2,2.6,2.1,3.7c0.8,1,1.8,1.6,2.9,1.6s2.2-0.4,3.3-1.3s2-2,2.9-3.4s1.7-3,2.4-4.7
		c0.7-1.7,1.3-3.4,1.8-5.1s0.9-3.3,1.1-4.8c0.3-1.5,0.4-2.7,0.4-3.6c0-1.8-0.3-3.5-0.9-4.9c-0.6-1.5-1.4-2.8-2.4-4s-2.1-2.3-3.4-3.4
		c-1.3-1-2.6-2.1-3.9-3.2c-2.8,3.7-4.8,7.8-6.1,12.2S443.2,82,443.2,86.5z"/>
	<path class="st0" d="M474.8,52.7c0.1-0.3,0.1-0.5,0.2-0.8s0.1-0.6,0.2-0.9l2.4,0.2c1.2,0.1,2.1,0.7,2.7,1.8c0.7,1,1.1,2.2,1.5,3.5
		c0.3,1.2,0.6,2.5,0.8,3.7c0.2,1.2,0.4,2.3,0.6,3.1c0.8-1.1,1.6-2.5,2.1-4.2c0.6-1.7,1.1-3.2,1.6-4.5c0.7-1.6,1.5-2.9,2.4-4.1
		c0.9-1.1,2.3-1.7,4.1-1.7h0.4c0.5,0,1.4,0.2,2.5,0.7s2.3,1,3.4,1.6s2.2,1.3,3,2.1c0.9,0.8,1.3,1.5,1.3,2.1v0.1
		c0,0.4-0.1,0.8-0.3,1.3c-0.2,0.5-0.4,1-0.7,1.4c-0.9-0.5-1.8-0.8-2.8-1.2c-0.9-0.3-1.9-0.5-2.8-0.6h-0.1c-0.9,0-1.8,0.4-2.7,1.3
		c-0.9,0.8-1.7,2-2.4,3.5c-0.7,1.5-1.4,3.3-2,5.3s-1.1,4.3-1.5,6.6c-0.5,3.3-1,6.7-1.5,10.2s-0.9,6.8-1.4,9.9
		c-0.4,3.1-0.8,5.7-1.3,8s-1.1,3.8-1.8,4.6c-0.5-0.1-1-0.3-1.5-0.6c-0.5-0.4-0.9-0.8-1.3-1.3s-0.8-1-1.1-1.5
		c-0.4-0.5-0.7-0.9-0.9-1.3v-1.6c0-5.1-0.1-10.1-0.4-15.1s-0.5-10-0.5-15.1c-0.1-2.7-0.4-5.4-1.1-7.9s-1-5.2-1-7.8v-0.8H474.8z"/>
</g>
</svg>
