<?xml version="1.0" encoding="UTF-8"?>
<!DOCTYPE svg PUBLIC "-//W3C//DTD SVG 1.1//EN" "http://www.w3.org/Graphics/SVG/1.1/DTD/svg11.dtd">
<!-- Creator: CorelDRAW 2018 (64 Bit) -->
<svg xmlns="http://www.w3.org/2000/svg" xml:space="preserve" width="150px" height="52px" version="1.1" style="shape-rendering:geometricPrecision; text-rendering:geometricPrecision; image-rendering:optimizeQuality; fill-rule:evenodd; clip-rule:evenodd"
viewBox="0 0 150 51.57"
 xmlns:xlink="http://www.w3.org/1999/xlink">
 <defs>
  <style type="text/css">
   <![CDATA[
    .fil0 {fill:white}
   ]]>
  </style>
 </defs>
 <g id="Capa_x0020_1">
  <metadata id="CorelCorpID_0Corel-Layer"/>
  <g id="_1440272202688">
   <path class="fil0" d="M83.85 36.86l5.22 -0.1c0.71,-1.14 0.81,-3.14 1.06,-4.67l0.59 -3.56c1.18,-3.63 11.47,2.25 15.59,-7.74 3,-7.26 0.06,-12.75 -7.61,-12.75l-10.11 0c-2.66,0 -2.24,1.98 -2.93,6.29l-3.12 19.68c-0.31,1.78 -0.83,2.85 1.31,2.85zm36.82 -2.07l0.15 1.93 5.85 0.12c1.36,-1.56 2.65,-13.21 3.25,-16.81 0.04,-0.22 0.17,-1.14 0.17,-1.27 -0.13,-2.04 -4.74,-1.3 -6.32,-1.03 -0.24,0.39 -0.46,1.18 -0.69,1.66 -2.22,-2.64 -7.2,-2.99 -11.01,-1.06 -7.59,3.84 -8.26,15.01 -2.44,18.03 3.66,1.91 8.95,0.61 11.04,-1.57zm-4.36 -11.96c-5.79,2.14 -4.7,11.25 2.46,8.83 1.97,-0.67 3.81,-3.17 3.52,-5.77 -0.31,-2.73 -3.16,-4.11 -5.98,-3.06zm-24.48 -1.46c2.83,0.25 6.38,0.31 7.37,-2.65 1.48,-4.46 -1.82,-4.84 -4.61,-4.84 -2.39,0 -1.84,1.52 -2.76,7.49z"/>
   <path class="fil0" d="M9.94 36.86c6.67,0 5.52,0.87 6.63,-6.64 0.21,-1.4 0.11,-1.9 0.89,-2.61 2.63,-1.23 7.11,0.84 11.51,-2.34 5.13,-3.71 8.41,-17.23 -4.19,-17.23 -14.06,0 -11.77,-1.16 -12.99,6.36 -0.41,2.59 -0.82,5.25 -1.24,7.91l-1.86 11.75c-0.27,1.56 -0.77,2.8 1.25,2.8zm36.64 -1.88l0.26 0.93c0.15,0.57 -0.06,0.3 0.27,0.93 7.78,0.16 6.08,1.17 7.77,-9.38 0.26,-1.61 1.78,-8.6 1.02,-9.35 -0.32,-0.36 0.6,-0.56 -2.68,-0.53 -1.16,0.01 -2.19,-0.06 -3.32,0.17l-0.66 1.72c-2.15,-3.87 -14.48,-3.73 -16.99,6.53 -2.73,11.17 8.89,13.98 14.33,8.98zm-4.23 -11.99c-1.52,0.59 -1.91,0.65 -2.78,2.13 -2.51,4.26 0.78,8.29 5.51,6.45 5.13,-1.98 4.31,-11.32 -2.73,-8.58zm-24.35 -1.53c3.02,0 6.24,0.12 7.26,-2.45 1.68,-4.22 -1.09,-5.13 -4.58,-5.13 -2.05,0 -1.69,0.89 -1.99,2.97 -0.24,1.61 -0.5,3.01 -0.69,4.61z"/>
   <path class="fil0" d="M60.48 43.58c6.58,0 4.43,0.67 9.09,-5.84 1.68,-2.34 3.13,-4.63 4.77,-6.92l7 -10.04c2.49,-3.56 1.42,-3.18 -3.81,-3.18 -2.17,0 -2.84,1.99 -4.74,4.73 -0.65,0.94 -1.28,1.88 -1.9,2.84l-2.24 2.95c-0.42,-1.91 -1.12,-3.92 -1.73,-5.91 -1.48,-4.78 -0.27,-4.61 -6.44,-4.61 -3.07,0 -1.46,1.99 -0.11,6.11 4.28,13.05 5.05,9.67 -0.53,17.26 -0.77,1.04 -1.98,2.61 0.64,2.61z"/>
   <path class="fil0" d="M132.49 36.86l4.55 -0.18c0.89,-2.41 2.97,-17.52 3.71,-22.22 0.2,-1.28 0.38,-2.49 0.61,-3.8 0.47,-2.78 0.73,-2.89 -6.06,-2.55 -0.8,1.94 -3.37,20.83 -4.27,26.02 -0.4,2.29 -0.79,2.73 1.46,2.73z"/>
  </g>
 </g>
</svg>
