<?xml version="1.0" encoding="UTF-8"?>
<!DOCTYPE svg PUBLIC "-//W3C//DTD SVG 1.1//EN" "http://www.w3.org/Graphics/SVG/1.1/DTD/svg11.dtd">
<!-- Creator: CorelDRAW 2018 (64 Bit) -->
<svg xmlns="http://www.w3.org/2000/svg" xml:space="preserve" width="150px" height="52px" version="1.1" style="shape-rendering:geometricPrecision; text-rendering:geometricPrecision; image-rendering:optimizeQuality; fill-rule:evenodd; clip-rule:evenodd"
viewBox="0 0 150 51.57"
 xmlns:xlink="http://www.w3.org/1999/xlink">
 <defs>
  <style type="text/css">
   <![CDATA[
    .fil0 {fill:#FDB513}
   ]]>
  </style>
 </defs>
 <g id="Capa_x0020_1">
  <metadata id="CorelCorpID_0Corel-Layer"/>
  <path class="fil0" d="M64.02 17.72l0.3 -2.75 -3.39 0.04 -2.84 16.7 3.74 0.02c1.01,-4.48 1.09,-11.97 4.97,-13.61 5.41,-2.29 1.26,9.1 1,13.63l3.67 -0.02c0.99,-4.49 1.34,-12.41 5.04,-13.69 1.51,-0.52 2.61,0.31 2.81,1.57 0.31,1.99 -1.63,9.07 -1.85,12.08l3.7 0.04c0.64,-2.46 2.38,-11.69 1.99,-13.87 -0.71,-3.88 -4.82,-3.96 -7.63,-2.02 -1.13,0.78 -1.21,1.39 -2,1.99 -0.53,-1.38 -0.92,-3.66 -4.66,-3.17 -1.16,0.15 -1.93,0.53 -2.77,1.11 -0.44,0.3 -0.76,0.5 -1.13,0.9 -0.43,0.47 -0.46,0.75 -0.95,1.05zm27.73 -2.85c-10.22,2.42 -10.14,19.61 1.24,17.04 4.07,-0.92 6.95,-4.73 7.33,-9.35 0.45,-5.38 -3.14,-8.97 -8.57,-7.69zm0.65 2.95c-4.95,1.4 -5.83,12.58 -0.12,11.11 4.56,-1.17 6,-12.76 0.12,-11.11zm37.17 10.12c-1.79,0.56 -3.51,1.42 -5.71,0.88 -1.65,-0.41 -2.87,-1.79 -2.5,-3.93 3.82,-0.08 11.91,-0.32 10.47,-6.71 -1.22,-5.37 -8.63,-3.82 -11.31,-0.89 -2.36,2.58 -4.81,9.19 -1.54,12.74 2.45,2.66 6.54,2.5 9.99,1.21 0.85,-0.32 0.94,-0.24 0.86,-1.22 -0.05,-0.69 -0.22,-1.39 -0.26,-2.08zm-7.83 -6.09c1.58,0.06 3.49,0.01 4.87,-0.5 3.68,-1.36 0.87,-5.58 -2.87,-2.87 -0.81,0.58 -1.78,1.91 -2,3.37zm8.15 14.17c-0.02,0.97 0.47,2.61 0.83,3.39 4.68,-0.82 8.01,-6.37 10.07,-10.39 1.07,-2.08 6.24,-12.54 6.71,-14.04l-4.08 0 -5.01 12.02c-0.39,-0.62 -1.86,-10.47 -1.98,-12l-4.08 -0.01c0.54,3.89 1.77,8.46 2.56,12.34 0.51,2.49 1.61,4.69 -2.48,7.37 -0.8,0.53 -1.53,0.81 -2.54,1.32zm-23.4 -18.16l0.27 -2.86 -3.32 0 -3.03 16.7 3.84 0.05c0.96,-4.95 1.28,-11.94 5.09,-13.62 1.41,-0.62 2.73,-0.07 3.03,1.23 0.49,2.17 -1.51,8.96 -1.78,12.36l3.81 0.02c0.54,-2.73 2.5,-11.53 1.97,-13.95 -0.49,-2.26 -2.3,-3.52 -4.96,-3.12 -2.68,0.41 -3.62,1.83 -4.92,3.19zm-60.33 -2.84c-4.55,0.57 -7.05,4.58 -6.36,9.77 0.59,4.4 4.07,7.63 9.25,6.67 8.9,-1.64 8.42,-17.85 -2.89,-16.44zm-12.46 8.75c0.35,0.92 0.69,2.7 0.42,3.91 -0.5,2.26 -6.51,1.49 -6.76,-3.66 -0.14,-2.77 1.33,-4.42 3.53,-5 2.81,-0.75 4.76,0.22 6.79,1.28 0.37,-3 -0.47,-4.16 -3.08,-4.75 -6.69,-1.5 -13.59,4.08 -10.83,11.85 1.21,3.41 5.78,5.69 10.6,4.66 2.48,-0.53 3.55,-1.62 3.62,-4.38 0.09,-3.71 -0.3,-4.26 -4.29,-3.91zm-21.64 3.71c-4.3,1.68 -5.69,0.19 -5.64,-2.5l0.1 -5.86c0.91,-0.02 3.68,0.01 4.34,-0.21 1.34,-0.47 1.07,-1.77 1.21,-3.27l-5.37 -0.09 0.02 -3.61c-3.18,0.05 -4.23,1.99 -4.22,5.16l0.08 9.88c0.02,2.4 1.55,4.08 4.25,4.55 1.35,0.24 3.09,0.19 4.17,-0.47 1.2,-0.73 1.03,-1.84 1.06,-3.58zm36.99 6.93c-1.36,0.85 -2.89,5.21 -10.71,5.61 -2.58,0.13 -4.89,-0.44 -6.7,-1.58 -0.7,-0.43 -1.9,-1.36 -2.29,-1.77 -0.36,-0.38 -1.46,-2.01 -1.9,-2.21 0.06,1.91 -0.35,2.78 0.5,4.42 3.63,7.06 16.97,7.6 20.55,0.18 0.83,-1.71 0.66,-2.62 0.55,-4.65zm-26.98 -6.22c-3.89,0.43 -3.19,-0.69 -3.19,-6.41 0,-4.55 0.81,-5.77 -3.95,-5.93 0.03,2.68 -0.39,10.96 0.13,12.94 0.45,1.68 1.77,2.55 3.75,2.76 2.69,0.28 3.36,-0.9 3.26,-3.36zm24.53 -9.45c-2.03,0.67 -3.05,2.86 -2.6,5.68 0.36,2.2 2.1,4.39 4.78,3.33 3.82,-1.52 2.9,-10.68 -2.18,-9.01zm-5.98 -5.18c1,-0.93 1.2,-1.64 2.76,-2.4 3.1,-1.52 7.48,-1.27 10.11,1.16 0.49,0.44 0.84,0.94 1.43,1.24 0.21,-1.91 0.22,-3.2 -1.76,-4.77 -1.32,-1.05 -3.15,-1.56 -5.26,-1.62 -4.15,-0.13 -8.06,1.99 -7.28,6.39zm-24.21 -3.64c-3.13,0.63 -1.98,5.27 1.32,4.3 2.51,-0.74 1.67,-4.89 -1.32,-4.3z"/>
 </g>
</svg>
