<?xml version="1.0" encoding="UTF-8"?>
<!DOCTYPE svg PUBLIC "-//W3C//DTD SVG 1.1//EN" "http://www.w3.org/Graphics/SVG/1.1/DTD/svg11.dtd">
<!-- Creator: CorelDRAW 2018 (64 Bit) -->
<svg xmlns="http://www.w3.org/2000/svg" xml:space="preserve" width="150px" height="52px" version="1.1" style="shape-rendering:geometricPrecision; text-rendering:geometricPrecision; image-rendering:optimizeQuality; fill-rule:evenodd; clip-rule:evenodd"
viewBox="0 0 150 51.57"
 xmlns:xlink="http://www.w3.org/1999/xlink">
 <defs>
  <style type="text/css">
   <![CDATA[
    .fil0 {fill:#FDB513}
   ]]>
  </style>
 </defs>
 <g id="Capa_x0020_1">
  <metadata id="CorelCorpID_0Corel-Layer"/>
  <path class="fil0" d="M94.29 10.76c-7.61,0.96 -14.26,6.68 -12.96,15.63 1,6.91 8.64,12.71 17.08,11.59 7.47,-1 14.64,-6.74 13.26,-15.43 -1.11,-6.97 -9.02,-12.85 -17.38,-11.79zm0.48 5.94c-10.99,2.18 -7.55,16.86 3.44,15.11 10.75,-1.72 7.56,-17.28 -3.44,-15.11z"/>
  <polygon class="fil0" points="114.06,38.01 120.36,38 120.54,20.2 126.87,29.27 133.4,38.12 140.37,38.11 140.37,10.94 133.55,10.82 133.48,28.95 130.49,24.3 123.8,15.28 120.46,10.93 114.05,10.88 "/>
  <path class="fil0" d="M51.95 29c-0.68,0.74 -3.17,4.27 -3.49,5.32 8.59,7.35 21.94,3.46 21.05,-6.17 -0.53,-5.75 -4.99,-5.98 -10.02,-7.54 -3.09,-0.97 -3.28,-3.61 -0.31,-4.26 2.74,-0.61 4.82,1 6.53,1.9l2.43 -4.99c-3.85,-3.32 -15,-4.09 -17.83,2.88 -0.97,2.38 -0.59,5.4 0.61,7.09 2.49,3.48 10.35,2.88 11.16,5.89 0.72,2.67 -2.31,3.73 -4.83,3.19 -2.46,-0.53 -3.96,-2.11 -5.3,-3.31z"/>
  <polygon class="fil0" points="17.29,29.5 27.52,10.91 7.23,10.91 12.12,20.09 "/>
  <polygon class="fil0" points="21.94,37.9 25.75,31.34 29.51,24.54 36.79,10.99 29.84,10.91 18.28,31.22 19.76,33.82 "/>
  <polygon class="fil0" points="39.05,38.03 46.17,38.08 46.23,16.82 39.06,16.68 "/>
  <polygon class="fil0" points="71.77,38.07 78.83,38.1 78.89,16.7 71.79,16.69 "/>
  <polygon class="fil0" points="71.79,15.25 78.71,15.28 78.76,10.84 71.86,10.86 "/>
  <polygon class="fil0" points="39.07,15.23 46.14,15.28 46.21,10.95 39.14,10.84 "/>
 </g>
</svg>
