<?xml version="1.0" encoding="UTF-8"?>
<!DOCTYPE svg PUBLIC "-//W3C//DTD SVG 1.1//EN" "http://www.w3.org/Graphics/SVG/1.1/DTD/svg11.dtd">
<!-- Creator: CorelDRAW 2018 (64 Bit) -->
<svg xmlns="http://www.w3.org/2000/svg" xml:space="preserve" width="170px" height="50px" version="1.1" style="shape-rendering:geometricPrecision; text-rendering:geometricPrecision; image-rendering:optimizeQuality; fill-rule:evenodd; clip-rule:evenodd"
viewBox="0 0 170 50"
 xmlns:xlink="http://www.w3.org/1999/xlink">
 <defs>
  <style type="text/css">
   <![CDATA[
    .fil1 {fill:#178637}
    .fil0 {fill:#96BA1A}
    .fil4 {fill:#727376;fill-rule:nonzero}
    .fil2 {fill:#178637;fill-rule:nonzero}
    .fil3 {fill:#96BA1A;fill-rule:nonzero}
   ]]>
  </style>
 </defs>
 <g id="Capa_x0020_1">
  <metadata id="CorelCorpID_0Corel-Layer"/>
  <g id="_2064429555744">
   <path class="fil0" d="M23.32 28.96c0.3,-0.74 0.78,-4.45 1.98,-7.96 0.95,-2.76 2.4,-4.36 3.66,-6.51 -0.46,2.14 -3.21,4.03 -3.63,15.3 3.59,-0.68 7.08,-3.56 7.76,-7.41 0.84,-4.73 -1.17,-8.92 0.18,-13.74 -2.8,0.55 -18.14,10.12 -9.95,20.32z"/>
   <path class="fil1" d="M25.48 30.35c1.17,1.38 4.14,2.54 6.01,6.05 -1.86,-1.81 -3.76,-4.15 -7.16,-5.04 -0.08,3.31 0.62,5.25 3.28,6.53 2.52,1.21 4.07,1.25 6.57,2.78 -0.34,-5.09 -2.73,-12.3 -8.7,-10.32z"/>
   <path class="fil1" d="M10 32.15c2.29,0.84 4,2.46 7.12,2.75 3.15,0.29 5.69,-1.18 6.36,-3.61 -1.47,0.31 -2.75,0.84 -4.48,1.13 -1.32,0.21 -4.44,-0.25 -5,-0.03 1.98,-0.15 3.3,-0.14 5.15,-0.66 1.58,-0.45 2.98,-1.27 4.24,-1.61 -1.37,-2.43 -4.86,-2.86 -7.18,-1.69l-6.02 3.57c-0.04,0.03 -0.13,0.1 -0.19,0.15z"/>
   <g>
    <path class="fil2" d="M42.46 15.38c1.67,0 2.98,0.58 3.91,1.72 0.92,1.15 1.39,2.77 1.39,4.86 0,2.1 -0.47,3.73 -1.4,4.89 -0.94,1.16 -2.24,1.74 -3.9,1.74 -0.83,0 -1.59,-0.15 -2.28,-0.46 -0.68,-0.31 -1.26,-0.78 -1.73,-1.42l-0.14 0 -0.4 1.64 -1.39 0 0 -18.11 1.93 0 0 4.4c0,0.98 -0.03,1.87 -0.09,2.66l0.09 0c0.9,-1.28 2.24,-1.92 4.01,-1.92zm-0.28 1.62c-1.32,0 -2.27,0.38 -2.85,1.14 -0.59,0.76 -0.88,2.03 -0.88,3.82 0,1.79 0.3,3.08 0.9,3.85 0.6,0.77 1.56,1.16 2.88,1.16 1.19,0 2.07,-0.43 2.65,-1.3 0.59,-0.86 0.88,-2.11 0.88,-3.73 0,-1.66 -0.29,-2.9 -0.88,-3.71 -0.58,-0.82 -1.48,-1.23 -2.7,-1.23zm10.88 11.35l-1.93 0 0 -12.75 1.93 0 0 12.75zm-2.09 -16.22c0,-0.44 0.1,-0.76 0.32,-0.96 0.22,-0.21 0.49,-0.32 0.82,-0.32 0.31,0 0.58,0.11 0.8,0.32 0.23,0.21 0.34,0.53 0.34,0.96 0,0.44 -0.11,0.77 -0.34,0.98 -0.22,0.21 -0.49,0.32 -0.8,0.32 -0.33,0 -0.6,-0.11 -0.82,-0.32 -0.22,-0.21 -0.32,-0.54 -0.32,-0.98zm17.2 9.83c0,2.09 -0.52,3.71 -1.57,4.88 -1.05,1.17 -2.49,1.75 -4.34,1.75 -1.14,0 -2.15,-0.27 -3.04,-0.8 -0.88,-0.54 -1.57,-1.31 -2.05,-2.31 -0.48,-1 -0.72,-2.17 -0.72,-3.52 0,-2.08 0.52,-3.7 1.56,-4.86 1.04,-1.16 2.49,-1.74 4.33,-1.74 1.79,0 3.2,0.59 4.25,1.78 1.06,1.19 1.58,2.8 1.58,4.82zm-9.72 0c0,1.63 0.33,2.88 0.98,3.73 0.65,0.85 1.61,1.28 2.88,1.28 1.26,0 2.22,-0.43 2.88,-1.28 0.65,-0.85 0.98,-2.09 0.98,-3.73 0,-1.62 -0.33,-2.85 -0.98,-3.69 -0.66,-0.84 -1.63,-1.27 -2.91,-1.27 -1.26,0 -2.22,0.42 -2.86,1.25 -0.64,0.83 -0.97,2.07 -0.97,3.71z"/>
    <path class="fil3" d="M73.49 28.35l-1.93 0 0 -18.11 1.93 0 0 18.11zm6.03 0l-1.93 0 0 -12.75 1.93 0 0 12.75zm-2.09 -16.22c0,-0.44 0.11,-0.76 0.33,-0.96 0.21,-0.21 0.48,-0.32 0.81,-0.32 0.31,0 0.58,0.11 0.8,0.32 0.23,0.21 0.34,0.53 0.34,0.96 0,0.44 -0.11,0.77 -0.34,0.98 -0.22,0.21 -0.49,0.32 -0.8,0.32 -0.33,0 -0.6,-0.11 -0.81,-0.32 -0.22,-0.21 -0.33,-0.54 -0.33,-0.98zm22.45 16.22l0 -8.3c0,-1.01 -0.22,-1.77 -0.65,-2.28 -0.44,-0.51 -1.11,-0.77 -2.03,-0.77 -1.2,0 -2.09,0.35 -2.66,1.04 -0.58,0.69 -0.86,1.75 -0.86,3.19l0 7.12 -1.94 0 0 -8.3c0,-1.01 -0.21,-1.77 -0.65,-2.28 -0.43,-0.51 -1.11,-0.77 -2.04,-0.77 -1.2,0 -2.09,0.37 -2.65,1.09 -0.56,0.73 -0.85,1.92 -0.85,3.57l0 6.69 -1.93 0 0 -12.75 1.57 0 0.32 1.74 0.09 0c0.36,-0.62 0.88,-1.11 1.54,-1.46 0.67,-0.34 1.41,-0.52 2.23,-0.52 1.99,0 3.3,0.72 3.91,2.17l0.09 0c0.38,-0.67 0.94,-1.2 1.66,-1.59 0.72,-0.38 1.54,-0.58 2.46,-0.58 1.44,0 2.53,0.37 3.24,1.11 0.72,0.74 1.08,1.93 1.08,3.56l0 8.32 -1.93 0zm11.85 0.24c-0.83,0 -1.59,-0.15 -2.28,-0.46 -0.68,-0.31 -1.26,-0.78 -1.72,-1.42l-0.14 0c0.09,0.75 0.14,1.45 0.14,2.12l0 5.24 -1.93 0 0 -18.47 1.57 0 0.27 1.74 0.09 0c0.49,-0.7 1.07,-1.2 1.73,-1.52 0.66,-0.3 1.42,-0.46 2.27,-0.46 1.69,0 3,0.58 3.92,1.74 0.92,1.15 1.38,2.77 1.38,4.86 0,2.1 -0.47,3.73 -1.4,4.89 -0.94,1.16 -2.23,1.74 -3.9,1.74zm-0.28 -11.59c-1.3,0 -2.24,0.37 -2.82,1.09 -0.59,0.72 -0.89,1.87 -0.9,3.44l0 0.43c0,1.79 0.3,3.08 0.9,3.85 0.59,0.77 1.55,1.16 2.87,1.16 1.1,0 1.97,-0.45 2.59,-1.34 0.63,-0.89 0.94,-2.12 0.94,-3.69 0,-1.59 -0.31,-2.81 -0.94,-3.66 -0.62,-0.85 -1.5,-1.28 -2.64,-1.28zm10.89 11.35l-1.93 0 0 -12.75 1.93 0 0 12.75zm-2.1 -16.22c0,-0.44 0.11,-0.76 0.33,-0.96 0.22,-0.21 0.49,-0.32 0.81,-0.32 0.31,0 0.58,0.11 0.8,0.32 0.23,0.21 0.34,0.53 0.34,0.96 0,0.44 -0.11,0.77 -0.34,0.98 -0.22,0.21 -0.49,0.32 -0.8,0.32 -0.32,0 -0.59,-0.11 -0.81,-0.32 -0.22,-0.21 -0.33,-0.54 -0.33,-0.98zm11.58 16.46c-1.88,0 -3.37,-0.58 -4.46,-1.72 -1.09,-1.15 -1.64,-2.75 -1.64,-4.79 0,-2.06 0.51,-3.69 1.52,-4.9 1.02,-1.22 2.38,-1.82 4.08,-1.82 1.6,0 2.87,0.52 3.8,1.58 0.93,1.05 1.4,2.44 1.4,4.16l0 1.22 -8.79 0c0.04,1.5 0.41,2.63 1.13,3.41 0.72,0.78 1.73,1.17 3.04,1.17 1.37,0 2.73,-0.29 4.07,-0.86l0 1.72c-0.69,0.3 -1.33,0.51 -1.94,0.64 -0.61,0.13 -1.34,0.19 -2.21,0.19zm-0.52 -11.61c-1.03,0 -1.84,0.34 -2.45,1 -0.61,0.67 -0.97,1.59 -1.07,2.77l6.66 0c0,-1.22 -0.27,-2.15 -0.81,-2.8 -0.55,-0.65 -1.32,-0.97 -2.33,-0.97zm16.44 11.37l-9.26 0 0 -1.31 6.96 -9.94 -6.53 0 0 -1.5 8.65 0 0 1.5 -6.87 9.75 7.05 0 0 1.5zm10.83 0l-0.38 -1.81 -0.1 0c-0.64,0.79 -1.27,1.34 -1.9,1.62 -0.64,0.29 -1.42,0.43 -2.37,0.43 -1.27,0 -2.25,-0.33 -2.97,-0.98 -0.72,-0.65 -1.08,-1.58 -1.08,-2.79 0,-2.57 2.06,-3.92 6.18,-4.05l2.16 -0.07 0 -0.79c0,-1 -0.21,-1.74 -0.64,-2.21 -0.43,-0.48 -1.12,-0.72 -2.07,-0.72 -1.06,0 -2.26,0.33 -3.6,0.98l-0.6 -1.48c0.63,-0.34 1.32,-0.61 2.07,-0.81 0.75,-0.19 1.5,-0.29 2.25,-0.29 1.52,0 2.65,0.34 3.38,1.02 0.73,0.67 1.1,1.75 1.1,3.24l0 8.71 -1.43 0zm-4.37 -1.36c1.21,0 2.15,-0.33 2.84,-0.99 0.68,-0.66 1.03,-1.58 1.03,-2.77l0 -1.15 -1.94 0.09c-1.53,0.05 -2.64,0.29 -3.32,0.71 -0.68,0.42 -1.01,1.08 -1.01,1.97 0,0.7 0.21,1.23 0.63,1.6 0.42,0.36 1.02,0.54 1.77,0.54z"/>
   </g>
   <path class="fil4" d="M43.17 39.03l0 -3.39c0,-0.42 -0.09,-0.73 -0.27,-0.94 -0.18,-0.21 -0.45,-0.31 -0.83,-0.31 -0.49,0 -0.85,0.14 -1.09,0.42 -0.23,0.29 -0.35,0.72 -0.35,1.3l0 2.92 -0.79 0 0 -3.39c0,-0.42 -0.09,-0.73 -0.26,-0.94 -0.18,-0.21 -0.46,-0.31 -0.84,-0.31 -0.49,0 -0.85,0.15 -1.08,0.44 -0.23,0.3 -0.35,0.79 -0.35,1.46l0 2.74 -0.79 0 0 -5.22 0.65 0 0.12 0.72 0.04 0c0.15,-0.26 0.36,-0.45 0.63,-0.6 0.27,-0.14 0.58,-0.21 0.91,-0.21 0.82,0 1.35,0.29 1.6,0.88l0.04 0c0.15,-0.27 0.38,-0.49 0.67,-0.65 0.3,-0.15 0.63,-0.23 1.01,-0.23 0.59,0 1.03,0.15 1.33,0.45 0.29,0.3 0.44,0.79 0.44,1.45l0 3.41 -0.79 0zm5.62 0l-0.16 -0.75 -0.04 0c-0.26,0.33 -0.51,0.55 -0.77,0.67 -0.26,0.12 -0.58,0.17 -0.97,0.17 -0.52,0 -0.92,-0.13 -1.22,-0.4 -0.29,-0.26 -0.44,-0.64 -0.44,-1.14 0,-1.05 0.85,-1.6 2.53,-1.65l0.88 -0.03 0 -0.32c0,-0.41 -0.08,-0.71 -0.26,-0.91 -0.18,-0.19 -0.46,-0.29 -0.84,-0.29 -0.44,0 -0.93,0.13 -1.48,0.4l-0.24 -0.6c0.26,-0.15 0.54,-0.25 0.84,-0.33 0.31,-0.08 0.62,-0.12 0.92,-0.12 0.63,0 1.09,0.13 1.39,0.41 0.3,0.28 0.45,0.72 0.45,1.33l0 3.56 -0.59 0zm-1.78 -0.56c0.49,0 0.87,-0.13 1.15,-0.4 0.28,-0.27 0.43,-0.65 0.43,-1.14l0 -0.47 -0.79 0.04c-0.63,0.02 -1.08,0.12 -1.36,0.29 -0.28,0.17 -0.42,0.44 -0.42,0.81 0,0.28 0.09,0.5 0.26,0.65 0.17,0.15 0.42,0.22 0.73,0.22zm7.56 0.56l0 -3.38c0,-0.42 -0.09,-0.74 -0.29,-0.95 -0.19,-0.21 -0.49,-0.31 -0.91,-0.31 -0.54,0 -0.94,0.15 -1.2,0.44 -0.25,0.3 -0.38,0.78 -0.38,1.46l0 2.74 -0.79 0 0 -5.22 0.65 0 0.12 0.72 0.04 0c0.16,-0.26 0.39,-0.46 0.68,-0.6 0.3,-0.14 0.62,-0.21 0.98,-0.21 0.63,0 1.1,0.15 1.42,0.45 0.31,0.3 0.47,0.79 0.47,1.45l0 3.41 -0.79 0zm4.1 -0.56c0.14,0 0.27,-0.01 0.4,-0.03 0.13,-0.02 0.23,-0.04 0.31,-0.06l0 0.6c-0.09,0.04 -0.21,0.08 -0.38,0.1 -0.16,0.03 -0.32,0.04 -0.45,0.04 -1.01,0 -1.51,-0.53 -1.51,-1.59l0 -3.1 -0.75 0 0 -0.38 0.75 -0.33 0.33 -1.11 0.46 0 0 1.2 1.51 0 0 0.62 -1.51 0 0 3.07c0,0.31 0.07,0.55 0.22,0.72 0.15,0.17 0.36,0.25 0.62,0.25zm3.95 0.65c-0.77,0 -1.37,-0.23 -1.82,-0.7 -0.45,-0.47 -0.67,-1.12 -0.67,-1.96 0,-0.84 0.21,-1.51 0.62,-2 0.42,-0.5 0.97,-0.74 1.67,-0.74 0.65,0 1.17,0.21 1.55,0.64 0.38,0.43 0.57,1 0.57,1.7l0 0.5 -3.59 0c0.02,0.61 0.17,1.08 0.46,1.4 0.3,0.31 0.71,0.47 1.24,0.47 0.56,0 1.12,-0.11 1.67,-0.35l0 0.7c-0.28,0.13 -0.55,0.21 -0.79,0.27 -0.25,0.05 -0.55,0.07 -0.91,0.07zm-0.21 -4.74c-0.42,0 -0.75,0.14 -1,0.41 -0.25,0.27 -0.4,0.65 -0.44,1.13l2.73 0c0,-0.5 -0.12,-0.88 -0.34,-1.14 -0.22,-0.27 -0.54,-0.4 -0.95,-0.4zm7.05 4.65l0 -3.38c0,-0.42 -0.1,-0.74 -0.29,-0.95 -0.2,-0.21 -0.5,-0.31 -0.91,-0.31 -0.55,0 -0.95,0.15 -1.2,0.44 -0.26,0.3 -0.38,0.78 -0.38,1.46l0 2.74 -0.79 0 0 -5.22 0.64 0 0.13 0.72 0.04 0c0.16,-0.26 0.38,-0.46 0.68,-0.6 0.29,-0.14 0.61,-0.21 0.97,-0.21 0.63,0 1.1,0.15 1.42,0.45 0.32,0.3 0.48,0.79 0.48,1.45l0 3.41 -0.79 0zm3.2 0l-0.79 0 0 -5.22 0.79 0 0 5.22zm-0.86 -6.63c0,-0.18 0.04,-0.31 0.13,-0.4 0.09,-0.08 0.2,-0.12 0.34,-0.12 0.12,0 0.24,0.04 0.32,0.12 0.1,0.09 0.14,0.22 0.14,0.4 0,0.18 -0.04,0.31 -0.14,0.4 -0.08,0.08 -0.2,0.13 -0.32,0.13 -0.14,0 -0.25,-0.05 -0.34,-0.13 -0.09,-0.09 -0.13,-0.22 -0.13,-0.4zm9.17 6.63l0 -3.39c0,-0.42 -0.08,-0.73 -0.26,-0.94 -0.18,-0.21 -0.45,-0.31 -0.83,-0.31 -0.49,0 -0.85,0.14 -1.09,0.42 -0.23,0.29 -0.35,0.72 -0.35,1.3l0 2.92 -0.79 0 0 -3.39c0,-0.42 -0.09,-0.73 -0.26,-0.94 -0.18,-0.21 -0.46,-0.31 -0.84,-0.31 -0.49,0 -0.85,0.15 -1.08,0.44 -0.23,0.3 -0.35,0.79 -0.35,1.46l0 2.74 -0.79 0 0 -5.22 0.64 0 0.13 0.72 0.04 0c0.15,-0.26 0.36,-0.45 0.63,-0.6 0.27,-0.14 0.58,-0.21 0.91,-0.21 0.82,0 1.35,0.29 1.6,0.88l0.04 0c0.15,-0.27 0.38,-0.49 0.67,-0.65 0.3,-0.15 0.63,-0.23 1.01,-0.23 0.59,0 1.03,0.15 1.33,0.45 0.29,0.3 0.43,0.79 0.43,1.45l0 3.41 -0.79 0zm3.21 0l-0.79 0 0 -5.22 0.79 0 0 5.22zm-0.85 -6.63c0,-0.18 0.04,-0.31 0.13,-0.4 0.09,-0.08 0.2,-0.12 0.33,-0.12 0.13,0 0.24,0.04 0.33,0.12 0.09,0.09 0.14,0.22 0.14,0.4 0,0.18 -0.05,0.31 -0.14,0.4 -0.09,0.08 -0.2,0.13 -0.33,0.13 -0.13,0 -0.24,-0.05 -0.33,-0.13 -0.09,-0.09 -0.13,-0.22 -0.13,-0.4zm4.73 6.72c-0.77,0 -1.38,-0.23 -1.82,-0.7 -0.45,-0.47 -0.67,-1.12 -0.67,-1.96 0,-0.84 0.2,-1.51 0.62,-2 0.41,-0.5 0.97,-0.74 1.67,-0.74 0.65,0 1.17,0.21 1.55,0.64 0.38,0.43 0.57,1 0.57,1.7l0 0.5 -3.59 0c0.01,0.61 0.17,1.08 0.46,1.4 0.29,0.31 0.71,0.47 1.24,0.47 0.56,0 1.11,-0.11 1.66,-0.35l0 0.7c-0.28,0.13 -0.54,0.21 -0.79,0.27 -0.25,0.05 -0.55,0.07 -0.9,0.07zm-0.21 -4.74c-0.42,0 -0.76,0.14 -1,0.41 -0.25,0.27 -0.4,0.65 -0.44,1.13l2.72 0c0,-0.5 -0.11,-0.88 -0.33,-1.14 -0.22,-0.27 -0.54,-0.4 -0.95,-0.4zm7.04 4.65l0 -3.38c0,-0.42 -0.09,-0.74 -0.29,-0.95 -0.19,-0.21 -0.49,-0.31 -0.91,-0.31 -0.54,0 -0.94,0.15 -1.19,0.44 -0.26,0.3 -0.39,0.78 -0.39,1.46l0 2.74 -0.79 0 0 -5.22 0.65 0 0.12 0.72 0.04 0c0.16,-0.26 0.39,-0.46 0.68,-0.6 0.29,-0.14 0.62,-0.21 0.98,-0.21 0.63,0 1.1,0.15 1.42,0.45 0.31,0.3 0.47,0.79 0.47,1.45l0 3.41 -0.79 0zm4.1 -0.56c0.14,0 0.27,-0.01 0.4,-0.03 0.13,-0.02 0.23,-0.04 0.31,-0.06l0 0.6c-0.09,0.04 -0.21,0.08 -0.38,0.1 -0.16,0.03 -0.31,0.04 -0.45,0.04 -1.01,0 -1.51,-0.53 -1.51,-1.59l0 -3.1 -0.75 0 0 -0.38 0.75 -0.33 0.33 -1.11 0.46 0 0 1.2 1.51 0 0 0.62 -1.51 0 0 3.07c0,0.31 0.07,0.55 0.22,0.72 0.15,0.17 0.36,0.25 0.62,0.25zm6.25 -2.05c0,0.85 -0.21,1.51 -0.64,1.99 -0.43,0.47 -1.02,0.71 -1.77,0.71 -0.47,0 -0.88,-0.1 -1.25,-0.32 -0.36,-0.22 -0.64,-0.54 -0.83,-0.95 -0.2,-0.41 -0.3,-0.89 -0.3,-1.43 0,-0.86 0.22,-1.52 0.64,-1.99 0.42,-0.48 1.01,-0.71 1.77,-0.71 0.73,0 1.31,0.24 1.74,0.72 0.43,0.49 0.64,1.15 0.64,1.98zm-3.97 0c0,0.66 0.13,1.17 0.4,1.52 0.27,0.35 0.66,0.52 1.18,0.52 0.51,0 0.9,-0.17 1.17,-0.52 0.27,-0.35 0.4,-0.86 0.4,-1.52 0,-0.67 -0.13,-1.17 -0.4,-1.51 -0.27,-0.35 -0.66,-0.52 -1.18,-0.52 -0.52,0 -0.91,0.17 -1.17,0.51 -0.27,0.34 -0.4,0.84 -0.4,1.52zm9.97 2.7c-0.75,0 -1.34,-0.23 -1.75,-0.69 -0.42,-0.47 -0.62,-1.13 -0.62,-1.97 0,-0.88 0.21,-1.55 0.63,-2.03 0.42,-0.47 1.02,-0.71 1.79,-0.71 0.25,0 0.5,0.02 0.76,0.08 0.25,0.05 0.44,0.12 0.58,0.19l-0.24 0.67c-0.17,-0.07 -0.36,-0.13 -0.57,-0.17 -0.2,-0.05 -0.39,-0.07 -0.55,-0.07 -1.05,0 -1.58,0.67 -1.58,2.02 0,0.64 0.12,1.14 0.38,1.48 0.26,0.34 0.64,0.51 1.15,0.51 0.44,0 0.88,-0.09 1.34,-0.28l0 0.7c-0.35,0.18 -0.79,0.27 -1.32,0.27zm7.05 -2.7c0,0.85 -0.21,1.51 -0.64,1.99 -0.43,0.47 -1.02,0.71 -1.77,0.71 -0.47,0 -0.88,-0.1 -1.24,-0.32 -0.36,-0.22 -0.64,-0.54 -0.84,-0.95 -0.2,-0.41 -0.3,-0.89 -0.3,-1.43 0,-0.86 0.22,-1.52 0.64,-1.99 0.43,-0.48 1.02,-0.71 1.77,-0.71 0.73,0 1.31,0.24 1.74,0.72 0.43,0.49 0.64,1.15 0.64,1.98zm-3.97 0c0,0.66 0.14,1.17 0.4,1.52 0.27,0.35 0.66,0.52 1.18,0.52 0.51,0 0.91,-0.17 1.17,-0.52 0.27,-0.35 0.41,-0.86 0.41,-1.52 0,-0.67 -0.14,-1.17 -0.41,-1.51 -0.26,-0.35 -0.66,-0.52 -1.18,-0.52 -0.52,0 -0.91,0.17 -1.17,0.51 -0.27,0.34 -0.4,0.84 -0.4,1.52zm7.74 -2.7c0.23,0 0.43,0.02 0.62,0.05l-0.11 0.74c-0.22,-0.05 -0.41,-0.07 -0.57,-0.07 -0.42,0 -0.78,0.17 -1.08,0.51 -0.3,0.34 -0.45,0.77 -0.45,1.28l0 2.8 -0.79 0 0 -5.22 0.65 0 0.09 0.97 0.04 0c0.19,-0.34 0.42,-0.6 0.7,-0.79 0.27,-0.18 0.57,-0.27 0.9,-0.27zm4.02 5.4c-0.34,0 -0.65,-0.06 -0.93,-0.18 -0.28,-0.13 -0.52,-0.32 -0.71,-0.58l-0.05 0c0.04,0.3 0.05,0.59 0.05,0.86l0 2.14 -0.78 0 0 -7.55 0.64 0 0.11 0.72 0.03 0c0.21,-0.29 0.45,-0.5 0.71,-0.62 0.27,-0.13 0.58,-0.19 0.93,-0.19 0.69,0 1.23,0.23 1.6,0.71 0.38,0.47 0.57,1.13 0.57,1.99 0,0.85 -0.19,1.52 -0.58,1.99 -0.38,0.48 -0.91,0.71 -1.59,0.71zm-0.11 -4.73c-0.53,0 -0.92,0.15 -1.16,0.44 -0.24,0.3 -0.36,0.77 -0.37,1.41l0 0.18c0,0.73 0.13,1.25 0.37,1.57 0.25,0.31 0.64,0.47 1.18,0.47 0.45,0 0.8,-0.18 1.06,-0.55 0.25,-0.36 0.38,-0.86 0.38,-1.5 0,-0.65 -0.13,-1.15 -0.38,-1.5 -0.26,-0.35 -0.62,-0.52 -1.08,-0.52zm8.15 2.03c0,0.85 -0.21,1.51 -0.64,1.99 -0.43,0.47 -1.02,0.71 -1.77,0.71 -0.47,0 -0.88,-0.1 -1.24,-0.32 -0.36,-0.22 -0.64,-0.54 -0.84,-0.95 -0.2,-0.41 -0.29,-0.89 -0.29,-1.43 0,-0.86 0.21,-1.52 0.63,-1.99 0.43,-0.48 1.02,-0.71 1.77,-0.71 0.73,0 1.31,0.24 1.74,0.72 0.43,0.49 0.64,1.15 0.64,1.98zm-3.97 0c0,0.66 0.14,1.17 0.4,1.52 0.27,0.35 0.66,0.52 1.18,0.52 0.51,0 0.91,-0.17 1.18,-0.52 0.26,-0.35 0.4,-0.86 0.4,-1.52 0,-0.67 -0.14,-1.17 -0.4,-1.51 -0.27,-0.35 -0.67,-0.52 -1.19,-0.52 -0.52,0 -0.91,0.17 -1.17,0.51 -0.26,0.34 -0.4,0.84 -0.4,1.52zm7.74 -2.7c0.23,0 0.43,0.02 0.62,0.05l-0.11 0.74c-0.22,-0.05 -0.41,-0.07 -0.57,-0.07 -0.42,0 -0.78,0.17 -1.08,0.51 -0.3,0.34 -0.45,0.77 -0.45,1.28l0 2.8 -0.79 0 0 -5.22 0.65 0 0.09 0.97 0.04 0c0.19,-0.34 0.43,-0.6 0.7,-0.79 0.27,-0.18 0.57,-0.27 0.9,-0.27zm4.61 5.31l-0.16 -0.75 -0.04 0c-0.26,0.33 -0.52,0.55 -0.78,0.67 -0.26,0.12 -0.58,0.17 -0.96,0.17 -0.52,0 -0.93,-0.13 -1.22,-0.4 -0.29,-0.26 -0.44,-0.64 -0.44,-1.14 0,-1.05 0.84,-1.6 2.53,-1.65l0.88 -0.03 0 -0.32c0,-0.41 -0.09,-0.71 -0.26,-0.91 -0.18,-0.19 -0.46,-0.29 -0.85,-0.29 -0.43,0 -0.92,0.13 -1.47,0.4l-0.24 -0.6c0.25,-0.15 0.53,-0.25 0.84,-0.33 0.31,-0.08 0.61,-0.12 0.92,-0.12 0.62,0 1.08,0.13 1.38,0.41 0.3,0.28 0.45,0.72 0.45,1.33l0 3.56 -0.58 0zm-1.79 -0.56c0.49,0 0.88,-0.13 1.16,-0.4 0.28,-0.27 0.42,-0.65 0.42,-1.14l0 -0.47 -0.79 0.04c-0.63,0.02 -1.08,0.12 -1.36,0.29 -0.27,0.17 -0.41,0.44 -0.41,0.81 0,0.28 0.08,0.5 0.26,0.65 0.17,0.15 0.41,0.22 0.72,0.22zm5.68 0c0.14,0 0.28,-0.01 0.41,-0.03 0.13,-0.02 0.23,-0.04 0.31,-0.06l0 0.6c-0.09,0.04 -0.21,0.08 -0.38,0.1 -0.17,0.03 -0.32,0.04 -0.45,0.04 -1.01,0 -1.51,-0.53 -1.51,-1.59l0 -3.1 -0.75 0 0 -0.38 0.75 -0.33 0.33 -1.11 0.46 0 0 1.2 1.51 0 0 0.62 -1.51 0 0 3.07c0,0.31 0.07,0.55 0.22,0.72 0.15,0.17 0.35,0.25 0.61,0.25zm2.55 0.56l-0.79 0 0 -5.22 0.79 0 0 5.22zm-0.86 -6.63c0,-0.18 0.05,-0.31 0.14,-0.4 0.09,-0.08 0.2,-0.12 0.33,-0.12 0.12,0 0.24,0.04 0.33,0.12 0.09,0.09 0.13,0.22 0.13,0.4 0,0.18 -0.04,0.31 -0.13,0.4 -0.09,0.08 -0.21,0.13 -0.33,0.13 -0.13,0 -0.24,-0.05 -0.33,-0.13 -0.09,-0.09 -0.14,-0.22 -0.14,-0.4zm3.68 6.63l-1.98 -5.22 0.84 0 1.13 3.1c0.25,0.72 0.4,1.19 0.44,1.4l0.04 0c0.04,-0.16 0.15,-0.51 0.33,-1.04 0.19,-0.53 0.6,-1.68 1.25,-3.46l0.85 0 -1.98 5.22 -0.92 0zm8.23 -2.61c0,0.85 -0.21,1.51 -0.64,1.99 -0.43,0.47 -1.02,0.71 -1.77,0.71 -0.47,0 -0.88,-0.1 -1.24,-0.32 -0.36,-0.22 -0.64,-0.54 -0.84,-0.95 -0.2,-0.41 -0.3,-0.89 -0.3,-1.43 0,-0.86 0.22,-1.52 0.64,-1.99 0.43,-0.48 1.02,-0.71 1.77,-0.71 0.73,0 1.31,0.24 1.74,0.72 0.43,0.49 0.64,1.15 0.64,1.98zm-3.97 0c0,0.66 0.13,1.17 0.4,1.52 0.27,0.35 0.66,0.52 1.18,0.52 0.51,0 0.91,-0.17 1.17,-0.52 0.27,-0.35 0.41,-0.86 0.41,-1.52 0,-0.67 -0.14,-1.17 -0.41,-1.51 -0.26,-0.35 -0.66,-0.52 -1.18,-0.52 -0.52,0 -0.91,0.17 -1.17,0.51 -0.27,0.34 -0.4,0.84 -0.4,1.52z"/>
  </g>
 </g>
</svg>
