<?xml version="1.0" encoding="utf-8"?>
<!-- Generator: Adobe Illustrator 24.0.2, SVG Export Plug-In . SVG Version: 6.00 Build 0)  -->
<svg version="1.1" id="Capa_1" xmlns="http://www.w3.org/2000/svg" xmlns:xlink="http://www.w3.org/1999/xlink" x="0px" y="0px"
	 viewBox="0 0 170 50" style="enable-background:new 0 0 170 50;" xml:space="preserve">
<style type="text/css">
	.st0{fill-rule:evenodd;clip-rule:evenodd;fill:url(#SVGID_1_);}
	.st1{fill:#B853FA;}
	.st2{fill:#969696;}
</style>
<g>
	<linearGradient id="SVGID_1_" gradientUnits="userSpaceOnUse" x1="20.2107" y1="18.3929" x2="37.1469" y2="28.1711">
		<stop  offset="0" style="stop-color:#FF01FF"/>
		<stop  offset="0.202" style="stop-color:#FB06FF"/>
		<stop  offset="0.4432" style="stop-color:#EF15FE"/>
		<stop  offset="0.7045" style="stop-color:#DA2DFC"/>
		<stop  offset="0.9783" style="stop-color:#BE4EFA"/>
		<stop  offset="1" style="stop-color:#BC51FA"/>
	</linearGradient>
	<path class="st0" d="M15.5,37.8c0.2-0.5-0.6-2.8,1.4-6l1.6-2.2c0.7-0.8,2.4-2.6,3.3-3.3l1.5-1.3c0.3-0.3,0.7-0.7,1.1-0.8
		c1.9-0.8,6.2-0.4,6.2-1.4c-0.5-1.1-4,0.2-4.9,0.3c0.3-0.5,2.4-2.4,3-3c1.4-1.3,3.4-3.8,4.3-5.7c0.9-1.8,1.5-4.2,1.1-6.6
		c-0.3-1.4-1.8-4.9-2.7-5.3c0.3,2.9,0.4,3.3-0.8,5.9c-0.8,1.6-2.1,3.1-3,4.2c-0.3,0.3-0.6,0.6-0.9,0.9l-8.4,7.7
		c-2,2.2-3.1,3.3-4.7,6.1c-1.4,2.6-1.1,5.9,0.5,8.5c0.2,0.4,1,1.6,1.4,1.9C15.5,37.8,15.4,37.7,15.5,37.8L15.5,37.8z M22.6,41.5
		c0.7,0.1,1.1,0.8,3.7,1.3c2.8,0.5,5.6-0.3,7.9-1.6c3.8-2.1,2.2-2.7,2.8-4.6c1.1-3.5,4-4.7,5.1-7.2c0.9-2.1,0.4-2.9,0.4-4.3
		c0.3,0.1,0.3,0.2,0.5,0.4c0.2,0.2,0.2,0.2,0.4,0.4c0.1,0.1,0.3,0.3,0.4,0.5c0.1,0.2,0.2,0.3,0.4,0.4c1.6,2.1,2.4,5,1.9,7.7
		c-0.5,2.8-2.7,5.2-5.1,6.5c-0.4,0.2-0.9,0.2-1.1,0.6c0.1,0.3,0.4,0.3,0.9,0.5c2.1,0.7,3.8,3.1,3.7,5.4c-0.4-0.1-0.8-0.3-1.2-0.4
		c-0.9-0.2-2.9-0.1-4.2-0.3c-2.6-0.5-3.4-2.5-3-2.9c0.6-0.3,2.2,0,2.9,0.1c0.5,0.1,0.9,0.2,1.3,0.4c0.4,0.1,0.9,0.4,1.2,0.5
		c-0.4-0.9-2.6-1.6-3.4-1.8c-0.2,0-0.5,0-0.8-0.1c-0.3,0-0.5,0-0.7-0.2c0.9-1.1,3.6-1.6,6-6.3c0.4-0.8,0.9-2.2,0.9-3.2
		c-0.2,0.1-0.1,0-0.2,0.1L43,34c-0.4,0.8-0.6,1.2-1.2,2c-1.4,2-3.4,3.9-5.4,5.2c-2.2,1.4-4.9,2.7-7.8,2.8c-1.1,0-2.8-0.2-3.7-0.6
		c-0.7-0.4-1.6-0.9-2.2-1.5C22.6,41.7,22.6,41.8,22.6,41.5L22.6,41.5z M11.2,33.9c-0.9-0.4-2-3.4-2.3-4.7c-0.5-2.8,0.4-5.8,2-8.1
		l2.4-2.8c0.1-0.1,0.3-0.3,0.4-0.5l2.2-2c1.1-1,6.2-5.1,7.7-6.1l1.9-1.6c0.6-0.5,1.2-1,1.8-1.6c2.5-2.3,2.5-3.5,2.9-3.9
		c0.8,1-1.2,4-1.7,4.6c-1.6,2.2-1.1,1.4-3,3.4c-1.4,1.4-2.8,2.6-4.2,3.9l-0.8,0.8c-0.7,0.7-0.8,0.6-1.7,1.5
		c-0.7,0.7-3.5,3.4-4.1,4.1l-2.1,2.7c-0.8,1.1-1.7,2.9-2,4.4C10,31.5,10.9,32.4,11.2,33.9L11.2,33.9z M21.5,27.6
		c1.4-0.1,3,0.5,4.4,0c2.2-0.7,1.4-2.2,2.4-2.2l-0.2,0.5c0.3,0.1,0.4,0.1,0.5,0.4c0.3,0.6,0.3,0.9,0.1,1.3c-0.2,0.3-0.1,0.2,0,0.6
		L28,28.1c0.1,0.4,0.2,0.3,0.2,0.8l-0.7-0.2l0.2,0.6c-0.4-0.1-0.4-0.3-0.8-0.3l0.1,0.7c-0.5-0.1-0.4-0.3-0.7-0.4l0.1,0.7
		c-0.2,0-0.5-0.3-0.7-0.4l-0.1,0.1c-0.1,0.1,0,0-0.1,0.1c-0.2-0.1-0.1-0.1-0.4-0.3c0,0.3,0.2,0.4,0.2,0.6c-0.4,0-0.3-0.4-0.9-0.5
		L24.2,30c-0.3-0.3-0.2-0.4-0.7-0.6c-1.4-0.7-0.7-0.5-1.4-1.1C21.9,27.9,21.7,27.9,21.5,27.6L21.5,27.6z M29.7,35.9
		c0.4-0.3,1-0.5,1.3-0.8c0.5-0.4,0.6-0.6,1-1.1c1.3-1.5,1.1-0.8,1.9-1.3c0.3-0.2,0.3-0.3,0.7-0.4c-0.1,0.5-0.4,1.6-0.6,2.1
		C33,37.7,30,36.8,29.7,35.9L29.7,35.9z M33.9,21.7c0-0.7,0.2-0.7,0.4-1.1c0.5-1.3-0.2-2,0.8-1.5c0.4,0.2,0.8,0.2,1.2,0.2
		c-0.1,0.3-0.2,0.2-0.3,0.4c0.2,0.2,0.1,0.1,0.2,0.3c-0.4,0.3-0.2,0.2-0.3,0.7C35.6,21.8,35,21.7,33.9,21.7z"/>
</g>
<g>
	<g id="logo">
		<g>
			<path class="st1" d="M49.8,26.5V11.3h8V13h-6.2v4.4h6.2V19h-6.2v7.5H49.8z"/>
			<path class="st1" d="M60.6,26.5V11.3h1.8v15.2H60.6z"/>
			<path class="st1" d="M71.6,18.1c1,0.4,1.7,1,2.2,1.7c0.5,0.7,0.8,1.5,0.8,2.5c0,1.4-0.4,2.5-1.3,3.4c-0.9,0.9-2.1,1.3-3.5,1.3
				c-1.2,0-2.2-0.3-3-0.9c-0.8-0.6-1.4-1.5-1.6-2.6l1.6-0.8c0.2,0.9,0.6,1.6,1.1,2.1s1.1,0.7,1.9,0.7c0.9,0,1.6-0.3,2.2-0.8
				c0.6-0.5,0.8-1.2,0.8-2c0-0.7-0.2-1.3-0.6-1.8s-1-0.9-1.8-1.3l-1.9-0.8c-1-0.4-1.8-1-2.3-1.6c-0.5-0.7-0.7-1.5-0.7-2.4
				c0-1.1,0.4-2,1.2-2.7c0.8-0.7,1.8-1.1,3.1-1.1c0.9,0,1.7,0.2,2.4,0.6c0.7,0.4,1.2,1,1.6,1.7l-1.5,1c-0.3-0.6-0.7-1-1.1-1.3
				c-0.4-0.3-0.9-0.4-1.4-0.4c-0.7,0-1.2,0.2-1.7,0.6c-0.4,0.4-0.6,0.9-0.6,1.6c0,0.5,0.2,1,0.5,1.4c0.3,0.4,0.8,0.7,1.5,1
				L71.6,18.1z"/>
			<path class="st1" d="M77.1,26.5V11.3h1.8v15.2H77.1z"/>
			<path class="st1" d="M98.1,19c0,1.1-0.2,2.1-0.6,3.1c-0.4,1-1,1.8-1.8,2.6c-0.8,0.7-1.7,1.3-2.7,1.7c-1,0.4-2,0.6-3.1,0.6
				c-1.1,0-2.1-0.2-3.1-0.6c-1-0.4-1.9-1-2.6-1.7c-0.8-0.8-1.4-1.6-1.8-2.6c-0.4-1-0.6-2-0.6-3.1c0-1.1,0.2-2.1,0.6-3.1
				c0.4-1,1-1.8,1.8-2.6c0.8-0.7,1.6-1.3,2.6-1.7c1-0.4,2-0.6,3.1-0.6c1.1,0,2.1,0.2,3.1,0.6c1,0.4,1.9,1,2.6,1.7
				c0.8,0.7,1.4,1.6,1.8,2.6C97.9,16.8,98.1,17.9,98.1,19z M90,25.2c0.8,0,1.6-0.2,2.4-0.5c0.8-0.3,1.4-0.8,2-1.4
				c0.6-0.6,1.1-1.3,1.4-2s0.5-1.6,0.5-2.4c0-0.9-0.2-1.7-0.5-2.4c-0.3-0.8-0.8-1.4-1.4-2c-0.6-0.6-1.3-1-2-1.4
				c-0.8-0.3-1.5-0.5-2.4-0.5c-0.8,0-1.6,0.2-2.4,0.5c-0.8,0.3-1.4,0.8-2,1.4c-0.6,0.6-1.1,1.3-1.4,2c-0.3,0.8-0.5,1.6-0.5,2.4
				c0,0.8,0.2,1.6,0.5,2.4c0.3,0.7,0.8,1.4,1.4,2c0.6,0.6,1.3,1.1,2,1.4C88.4,25.1,89.1,25.2,90,25.2z"/>
			<path class="st1" d="M106.6,18.1c1,0.4,1.7,1,2.2,1.7c0.5,0.7,0.8,1.5,0.8,2.5c0,1.4-0.4,2.5-1.3,3.4c-0.9,0.9-2.1,1.3-3.5,1.3
				c-1.2,0-2.2-0.3-3-0.9c-0.8-0.6-1.4-1.5-1.6-2.6l1.6-0.8c0.2,0.9,0.6,1.6,1.1,2.1c0.5,0.5,1.1,0.7,1.9,0.7c0.9,0,1.6-0.3,2.2-0.8
				c0.6-0.5,0.8-1.2,0.8-2c0-0.7-0.2-1.3-0.6-1.8s-1-0.9-1.8-1.3l-1.9-0.8c-1-0.4-1.8-1-2.3-1.6c-0.5-0.7-0.7-1.5-0.7-2.4
				c0-1.1,0.4-2,1.2-2.7c0.8-0.7,1.8-1.1,3.1-1.1c0.9,0,1.7,0.2,2.4,0.6s1.2,1,1.6,1.7l-1.5,1c-0.3-0.6-0.7-1-1.1-1.3
				c-0.4-0.3-0.9-0.4-1.4-0.4c-0.7,0-1.2,0.2-1.7,0.6c-0.4,0.4-0.7,0.9-0.7,1.6c0,0.5,0.2,1,0.5,1.4c0.3,0.4,0.8,0.7,1.5,1
				L106.6,18.1z"/>
			<path class="st1" d="M114.7,26.5V13.1h-4.3v-1.7h10.4v1.7h-4.3v13.5H114.7z"/>
			<path class="st1" d="M122.8,26.5V11.3h8V13h-6.2v4.4h6.2V19h-6.2v5.8h6.2v1.7H122.8z"/>
			<path class="st1" d="M136.6,26.5V13.1h-4.3v-1.7h10.4v1.7h-4.3v13.5H136.6z"/>
			<path class="st1" d="M144.7,26.5V11.3h1.8v15.2H144.7z"/>
			<path class="st1" d="M150.2,26.5V11.3h1.8v6.8l6.4-6.8h2.2l-6.5,6.9l7.2,8.4h-2.3l-6.9-8.2v8.2H150.2z"/>
		</g>
	</g>
	<g>
		<path class="st2" d="M63.3,37.1l-2-5.1h0c0,0.4,0.1,0.9,0.1,1.4v3.7h-0.6v-5.8h1l1.8,4.8h0l1.8-4.8h1v5.8h-0.7v-3.7
			c0-0.4,0-0.9,0.1-1.4h0l-2,5.1H63.3z"/>
		<path class="st2" d="M69.8,37.2c-0.6,0-1.1-0.2-1.5-0.6c-0.4-0.4-0.6-0.9-0.6-1.6c0-0.7,0.2-1.3,0.5-1.7c0.3-0.4,0.8-0.6,1.4-0.6
			c0.5,0,1,0.2,1.3,0.5s0.5,0.8,0.5,1.4V35h-3c0,0.5,0.1,0.9,0.4,1.2c0.2,0.3,0.6,0.4,1,0.4c0.5,0,0.9-0.1,1.4-0.3v0.6
			c-0.2,0.1-0.5,0.2-0.7,0.2C70.3,37.2,70,37.2,69.8,37.2z M69.6,33.2c-0.3,0-0.6,0.1-0.8,0.3c-0.2,0.2-0.3,0.5-0.4,0.9h2.3
			c0-0.4-0.1-0.7-0.3-0.9C70.2,33.3,69.9,33.2,69.6,33.2z"/>
		<path class="st2" d="M75.4,36.5L75.4,36.5c-0.3,0.4-0.8,0.7-1.4,0.7c-0.6,0-1-0.2-1.3-0.6c-0.3-0.4-0.5-0.9-0.5-1.7
			c0-0.7,0.2-1.3,0.5-1.7c0.3-0.4,0.8-0.6,1.3-0.6c0.6,0,1,0.2,1.4,0.6h0.1l0-0.3l0-0.3v-1.8H76v6.1h-0.5L75.4,36.5z M74.1,36.6
			c0.4,0,0.8-0.1,1-0.4c0.2-0.2,0.3-0.6,0.3-1.2v-0.1c0-0.6-0.1-1.1-0.3-1.3c-0.2-0.3-0.5-0.4-1-0.4c-0.4,0-0.7,0.1-0.9,0.4
			s-0.3,0.7-0.3,1.3c0,0.6,0.1,1,0.3,1.3C73.4,36.5,73.7,36.6,74.1,36.6z"/>
		<path class="st2" d="M77.4,31.6c0-0.2,0-0.3,0.1-0.3c0.1-0.1,0.2-0.1,0.3-0.1c0.1,0,0.2,0,0.3,0.1c0.1,0.1,0.1,0.2,0.1,0.3
			s0,0.3-0.1,0.3C77.9,32,77.9,32,77.7,32c-0.1,0-0.2,0-0.3-0.1C77.4,31.8,77.4,31.7,77.4,31.6z M78.1,37.1h-0.7v-4.3h0.7V37.1z"/>
		<path class="st2" d="M81.2,37.2c-0.6,0-1.1-0.2-1.5-0.6c-0.3-0.4-0.5-0.9-0.5-1.6c0-0.7,0.2-1.3,0.5-1.7c0.3-0.4,0.8-0.6,1.5-0.6
			c0.2,0,0.4,0,0.6,0.1s0.4,0.1,0.5,0.2l-0.2,0.6c-0.1-0.1-0.3-0.1-0.5-0.1c-0.2,0-0.3-0.1-0.5-0.1c-0.9,0-1.3,0.6-1.3,1.7
			c0,0.5,0.1,0.9,0.3,1.2c0.2,0.3,0.5,0.4,1,0.4c0.4,0,0.7-0.1,1.1-0.2v0.6C82,37.1,81.6,37.2,81.2,37.2z"/>
		<path class="st2" d="M83.3,31.6c0-0.2,0-0.3,0.1-0.3c0.1-0.1,0.2-0.1,0.3-0.1c0.1,0,0.2,0,0.3,0.1c0.1,0.1,0.1,0.2,0.1,0.3
			s0,0.3-0.1,0.3C83.8,32,83.8,32,83.6,32c-0.1,0-0.2,0-0.3-0.1C83.3,31.8,83.3,31.7,83.3,31.6z M84,37.1h-0.7v-4.3H84V37.1z"/>
		<path class="st2" d="M88.3,37.1v-2.8c0-0.4-0.1-0.6-0.2-0.8s-0.4-0.3-0.8-0.3c-0.5,0-0.8,0.1-1,0.4c-0.2,0.2-0.3,0.6-0.3,1.2v2.3
			h-0.7v-4.3h0.5l0.1,0.6h0c0.1-0.2,0.3-0.4,0.6-0.5s0.5-0.2,0.8-0.2c0.5,0,0.9,0.1,1.2,0.4c0.3,0.3,0.4,0.7,0.4,1.2v2.8H88.3z"/>
		<path class="st2" d="M93,37.1l-0.1-0.6h0c-0.2,0.3-0.4,0.5-0.6,0.6c-0.2,0.1-0.5,0.1-0.8,0.1c-0.4,0-0.8-0.1-1-0.3
			c-0.2-0.2-0.4-0.5-0.4-0.9c0-0.9,0.7-1.3,2.1-1.4l0.7,0v-0.3c0-0.3-0.1-0.6-0.2-0.8c-0.1-0.2-0.4-0.2-0.7-0.2
			c-0.4,0-0.8,0.1-1.2,0.3l-0.2-0.5c0.2-0.1,0.4-0.2,0.7-0.3c0.3-0.1,0.5-0.1,0.8-0.1c0.5,0,0.9,0.1,1.1,0.3
			c0.2,0.2,0.4,0.6,0.4,1.1v3H93z M91.5,36.6c0.4,0,0.7-0.1,1-0.3c0.2-0.2,0.3-0.5,0.3-0.9V35l-0.7,0c-0.5,0-0.9,0.1-1.1,0.2
			c-0.2,0.1-0.3,0.4-0.3,0.7c0,0.2,0.1,0.4,0.2,0.5S91.2,36.6,91.5,36.6z"/>
		<path class="st2" d="M100.2,37.1H97v-5.8h3.2v0.6h-2.5v1.9h2.4v0.6h-2.4v2.1h2.5V37.1z"/>
		<path class="st2" d="M104.2,35.9c0,0.4-0.2,0.7-0.5,0.9c-0.3,0.2-0.7,0.3-1.3,0.3c-0.6,0-1-0.1-1.3-0.3v-0.6
			c0.2,0.1,0.4,0.2,0.7,0.2s0.5,0.1,0.7,0.1c0.3,0,0.6-0.1,0.8-0.2c0.2-0.1,0.3-0.3,0.3-0.5c0-0.2-0.1-0.3-0.2-0.4
			c-0.1-0.1-0.4-0.3-0.9-0.4c-0.4-0.2-0.7-0.3-0.9-0.4c-0.2-0.1-0.3-0.2-0.4-0.4c-0.1-0.1-0.1-0.3-0.1-0.5c0-0.4,0.1-0.6,0.4-0.8
			c0.3-0.2,0.7-0.3,1.2-0.3c0.5,0,0.9,0.1,1.4,0.3l-0.2,0.5c-0.4-0.2-0.8-0.3-1.2-0.3c-0.3,0-0.5,0-0.7,0.1
			c-0.2,0.1-0.2,0.2-0.2,0.4c0,0.1,0,0.2,0.1,0.3c0.1,0.1,0.2,0.2,0.3,0.2c0.1,0.1,0.4,0.2,0.8,0.3c0.5,0.2,0.9,0.4,1,0.6
			C104.1,35.4,104.2,35.6,104.2,35.9z"/>
		<path class="st2" d="M106.7,36.6c0.1,0,0.2,0,0.3,0c0.1,0,0.2,0,0.3-0.1v0.5c-0.1,0-0.2,0.1-0.3,0.1c-0.1,0-0.3,0-0.4,0
			c-0.8,0-1.3-0.4-1.3-1.3v-2.6h-0.6V33l0.6-0.3l0.3-0.9h0.4v1h1.3v0.5H106v2.5c0,0.3,0.1,0.5,0.2,0.6
			C106.3,36.6,106.5,36.6,106.7,36.6z"/>
		<path class="st2" d="M110,37.2c-0.6,0-1.1-0.2-1.5-0.6s-0.6-0.9-0.6-1.6c0-0.7,0.2-1.3,0.5-1.7c0.3-0.4,0.8-0.6,1.4-0.6
			c0.5,0,1,0.2,1.3,0.5c0.3,0.4,0.5,0.8,0.5,1.4V35h-3c0,0.5,0.1,0.9,0.4,1.2c0.2,0.3,0.6,0.4,1,0.4c0.5,0,0.9-0.1,1.4-0.3v0.6
			c-0.2,0.1-0.5,0.2-0.7,0.2C110.5,37.2,110.3,37.2,110,37.2z M109.8,33.2c-0.3,0-0.6,0.1-0.8,0.3c-0.2,0.2-0.3,0.5-0.4,0.9h2.3
			c0-0.4-0.1-0.7-0.3-0.9S110.1,33.2,109.8,33.2z M109.3,32.1c0.1-0.2,0.3-0.4,0.4-0.6c0.1-0.2,0.3-0.4,0.3-0.6h0.8V31
			c-0.1,0.2-0.3,0.4-0.5,0.6c-0.2,0.3-0.4,0.4-0.6,0.6L109.3,32.1L109.3,32.1z"/>
		<path class="st2" d="M114.1,36.6c0.1,0,0.2,0,0.3,0c0.1,0,0.2,0,0.3-0.1v0.5c-0.1,0-0.2,0.1-0.3,0.1c-0.1,0-0.3,0-0.4,0
			c-0.8,0-1.3-0.4-1.3-1.3v-2.6h-0.6V33l0.6-0.3l0.3-0.9h0.4v1h1.3v0.5h-1.3v2.5c0,0.3,0.1,0.5,0.2,0.6
			C113.7,36.6,113.9,36.6,114.1,36.6z"/>
		<path class="st2" d="M115.5,31.6c0-0.2,0-0.3,0.1-0.3c0.1-0.1,0.2-0.1,0.3-0.1c0.1,0,0.2,0,0.3,0.1c0.1,0.1,0.1,0.2,0.1,0.3
			s0,0.3-0.1,0.3c-0.1,0.1-0.2,0.1-0.3,0.1c-0.1,0-0.2,0-0.3-0.1C115.5,31.8,115.5,31.7,115.5,31.6z M116.2,37.1h-0.7v-4.3h0.7V37.1
			z"/>
		<path class="st2" d="M119.3,37.2c-0.6,0-1.1-0.2-1.5-0.6c-0.3-0.4-0.5-0.9-0.5-1.6c0-0.7,0.2-1.3,0.5-1.7c0.3-0.4,0.8-0.6,1.5-0.6
			c0.2,0,0.4,0,0.6,0.1s0.4,0.1,0.5,0.2l-0.2,0.6c-0.1-0.1-0.3-0.1-0.5-0.1c-0.2,0-0.3-0.1-0.5-0.1c-0.9,0-1.3,0.6-1.3,1.7
			c0,0.5,0.1,0.9,0.3,1.2s0.5,0.4,1,0.4c0.4,0,0.7-0.1,1.1-0.2v0.6C120.1,37.1,119.7,37.2,119.3,37.2z"/>
		<path class="st2" d="M124.1,37.1l-0.1-0.6h0c-0.2,0.3-0.4,0.5-0.6,0.6c-0.2,0.1-0.5,0.1-0.8,0.1c-0.4,0-0.8-0.1-1-0.3
			c-0.2-0.2-0.4-0.5-0.4-0.9c0-0.9,0.7-1.3,2.1-1.4l0.7,0v-0.3c0-0.3-0.1-0.6-0.2-0.8c-0.1-0.2-0.4-0.2-0.7-0.2
			c-0.4,0-0.8,0.1-1.2,0.3l-0.2-0.5c0.2-0.1,0.4-0.2,0.7-0.3c0.3-0.1,0.5-0.1,0.8-0.1c0.5,0,0.9,0.1,1.1,0.3
			c0.2,0.2,0.4,0.6,0.4,1.1v3H124.1z M122.6,36.6c0.4,0,0.7-0.1,1-0.3c0.2-0.2,0.3-0.5,0.3-0.9V35l-0.7,0c-0.5,0-0.9,0.1-1.1,0.2
			c-0.2,0.1-0.3,0.4-0.3,0.7c0,0.2,0.1,0.4,0.2,0.5S122.3,36.6,122.6,36.6z"/>
		<path class="st2" d="M127.8,35.6c0-0.3,0.1-0.6,0.3-0.9c0.2-0.3,0.5-0.5,1-0.8c-0.2-0.3-0.4-0.4-0.5-0.6s-0.1-0.3-0.2-0.4
			c0-0.1-0.1-0.3-0.1-0.4c0-0.4,0.1-0.7,0.4-0.9c0.3-0.2,0.6-0.3,1.1-0.3c0.4,0,0.8,0.1,1,0.3c0.2,0.2,0.4,0.5,0.4,0.9
			c0,0.3-0.1,0.5-0.3,0.8c-0.2,0.2-0.5,0.5-0.9,0.7l1.6,1.5c0.1-0.2,0.3-0.4,0.4-0.6c0.1-0.2,0.2-0.5,0.2-0.7h0.7
			c-0.2,0.8-0.4,1.3-0.8,1.7l1.2,1.1h-0.9l-0.7-0.7c-0.3,0.3-0.6,0.5-0.9,0.6s-0.7,0.2-1.1,0.2c-0.6,0-1-0.1-1.3-0.4
			C127.9,36.5,127.8,36.1,127.8,35.6z M129.6,36.6c0.6,0,1.2-0.2,1.6-0.6l-1.7-1.7c-0.3,0.2-0.5,0.3-0.6,0.4s-0.2,0.2-0.3,0.4
			c-0.1,0.1-0.1,0.3-0.1,0.5c0,0.3,0.1,0.6,0.3,0.7C129,36.5,129.2,36.6,129.6,36.6z M129,32.5c0,0.2,0,0.4,0.1,0.5
			c0.1,0.2,0.3,0.4,0.5,0.6c0.3-0.2,0.6-0.4,0.7-0.5s0.2-0.4,0.2-0.6c0-0.2-0.1-0.4-0.2-0.5s-0.3-0.2-0.5-0.2
			c-0.2,0-0.4,0.1-0.6,0.2C129,32.1,129,32.3,129,32.5z"/>
		<path class="st2" d="M139.4,35.6c0,0.5-0.2,0.9-0.6,1.2c-0.4,0.3-0.9,0.4-1.5,0.4c-0.7,0-1.2-0.1-1.6-0.3v-0.6
			c0.2,0.1,0.5,0.2,0.8,0.2c0.3,0.1,0.6,0.1,0.8,0.1c0.4,0,0.8-0.1,1-0.3c0.2-0.2,0.3-0.4,0.3-0.7c0-0.2,0-0.4-0.1-0.5
			s-0.2-0.2-0.4-0.4c-0.2-0.1-0.5-0.2-0.9-0.4c-0.5-0.2-0.9-0.4-1.2-0.7c-0.2-0.3-0.3-0.6-0.3-1c0-0.4,0.2-0.8,0.5-1.1
			c0.3-0.3,0.8-0.4,1.3-0.4c0.6,0,1.1,0.1,1.6,0.3l-0.2,0.6c-0.5-0.2-0.9-0.3-1.4-0.3c-0.4,0-0.6,0.1-0.8,0.2s-0.3,0.4-0.3,0.6
			c0,0.2,0,0.4,0.1,0.5c0.1,0.1,0.2,0.2,0.4,0.4c0.2,0.1,0.4,0.2,0.8,0.4c0.6,0.2,1,0.4,1.3,0.7C139.3,34.8,139.4,35.2,139.4,35.6z"
			/>
		<path class="st2" d="M142.5,37.2c-0.3,0-0.5-0.1-0.8-0.2c-0.2-0.1-0.4-0.3-0.6-0.5h0c0,0.3,0,0.5,0,0.7V39h-0.7v-6.3h0.5l0.1,0.6
			h0c0.2-0.2,0.4-0.4,0.6-0.5c0.2-0.1,0.5-0.2,0.8-0.2c0.6,0,1,0.2,1.3,0.6c0.3,0.4,0.5,0.9,0.5,1.7c0,0.7-0.2,1.3-0.5,1.7
			S143,37.2,142.5,37.2z M142.4,33.2c-0.4,0-0.8,0.1-1,0.4c-0.2,0.2-0.3,0.6-0.3,1.2v0.1c0,0.6,0.1,1,0.3,1.3c0.2,0.3,0.5,0.4,1,0.4
			c0.4,0,0.7-0.2,0.9-0.5s0.3-0.7,0.3-1.3c0-0.5-0.1-1-0.3-1.2S142.8,33.2,142.4,33.2z"/>
		<path class="st2" d="M148.1,37.1l-0.1-0.6h0c-0.2,0.3-0.4,0.5-0.6,0.6c-0.2,0.1-0.5,0.1-0.8,0.1c-0.4,0-0.8-0.1-1-0.3
			c-0.2-0.2-0.4-0.5-0.4-0.9c0-0.9,0.7-1.3,2.1-1.4l0.7,0v-0.3c0-0.3-0.1-0.6-0.2-0.8c-0.1-0.2-0.4-0.2-0.7-0.2
			c-0.4,0-0.8,0.1-1.2,0.3l-0.2-0.5c0.2-0.1,0.4-0.2,0.7-0.3c0.3-0.1,0.5-0.1,0.8-0.1c0.5,0,0.9,0.1,1.1,0.3
			c0.2,0.2,0.4,0.6,0.4,1.1v3H148.1z M146.6,36.6c0.4,0,0.7-0.1,1-0.3c0.2-0.2,0.3-0.5,0.3-0.9V35l-0.7,0c-0.5,0-0.9,0.1-1.1,0.2
			c-0.2,0.1-0.3,0.4-0.3,0.7c0,0.2,0.1,0.4,0.2,0.5S146.3,36.6,146.6,36.6z"/>
	</g>
</g>
</svg>
