<?xml version="1.0" encoding="utf-8"?>
<!-- Generator: Adobe Illustrator 24.0.2, SVG Export Plug-In . SVG Version: 6.00 Build 0)  -->
<svg version="1.1" id="Capa_1" xmlns="http://www.w3.org/2000/svg" xmlns:xlink="http://www.w3.org/1999/xlink" x="0px" y="0px"
	 viewBox="0 0 170 50" style="enable-background:new 0 0 170 50;" xml:space="preserve">
<style type="text/css">
	.st0{fill:#4D4D4D;stroke:#4D4D4D;stroke-width:0.5;stroke-miterlimit:10;}
	.st1{fill:#DDA957;}
</style>
<g>
	<path class="st0" d="M58.1,8.8h3.2c1.9,0,3.5,0.7,4.8,2s2,2.9,2,4.8c0,1.9-0.7,3.5-2,4.8c-1.3,1.3-2.9,1.9-4.8,1.9h-3.2V8.8z
		 M58.8,21.7h2.5c1.8,0,3.2-0.6,4.4-1.7c1.2-1.2,1.7-2.6,1.7-4.4c0-1.7-0.6-3.2-1.8-4.4C64.4,10,63,9.4,61.3,9.4h-2.5V21.7z"/>
	<path class="st0" d="M75.8,12.7c-1.2,0-2.3,0.5-3.2,1.4c-0.9,0.9-1.3,2-1.3,3.2v5h-0.6v-5c0-1.5,0.5-2.7,1.6-3.7
		c1-1,2.3-1.5,3.6-1.5V12.7z"/>
	<path class="st0" d="M84.3,22.1c-0.6,0.3-1.3,0.4-2,0.4c-1.4,0-2.6-0.5-3.6-1.5c-1-1-1.6-2.2-1.6-3.7c0-1.4,0.5-2.6,1.5-3.6
		c1-1,2.2-1.6,3.7-1.6c1.4,0,2.6,0.5,3.6,1.5c1,1,1.6,2.2,1.6,3.7v5h-0.6v-5.1c0-1.2-0.5-2.3-1.4-3.1c-0.9-0.9-2-1.3-3.2-1.3
		S80,13.2,79,14c-0.9,0.9-1.4,1.9-1.4,3.2c0,1.2,0.4,2.3,1.3,3.2c0.9,0.9,2,1.4,3.3,1.4c0.6,0,1.2-0.1,1.8-0.4L84.3,22.1z"/>
	<path class="st0" d="M96.2,22.3h-0.8l6.2-13.7l6.2,13.7h-0.8l-2.2-4.9h-6.4L96.2,22.3z M101.6,10.3l-2.9,6.5h5.8L101.6,10.3z"/>
	<path class="st0" d="M118.1,12.3h0.8l-5.2,10.2l-5.2-10.2h0.7l4.5,9L118.1,12.3z"/>
	<path class="st0" d="M126.9,22.1c-0.6,0.3-1.3,0.4-2,0.4c-1.4,0-2.6-0.5-3.6-1.5c-1-1-1.6-2.2-1.6-3.7c0-1.4,0.5-2.6,1.5-3.6
		c1-1,2.2-1.6,3.7-1.6c1.4,0,2.6,0.5,3.6,1.5c1,1,1.6,2.2,1.6,3.7v5h-0.6v-5.1c0-1.2-0.5-2.3-1.4-3.1c-0.9-0.9-2-1.3-3.2-1.3
		s-2.3,0.4-3.2,1.3c-0.9,0.9-1.4,1.9-1.4,3.2c0,1.2,0.4,2.3,1.3,3.2c0.9,0.9,2,1.4,3.3,1.4c0.6,0,1.2-0.1,1.8-0.4L126.9,22.1z"/>
	<path class="st0" d="M134,22.3h-0.7v-14h0.7V22.3z"/>
	<path class="st0" d="M145.7,20.9c-1,1-2.2,1.5-3.6,1.5c-1.4,0-2.6-0.5-3.7-1.5c-1-1-1.5-2.2-1.5-3.7c0-1.4,0.5-2.6,1.5-3.6
		c1-1,2.2-1.5,3.7-1.5c1.4,0,2.6,0.5,3.6,1.5c1,1,1.5,2.2,1.5,3.6C147.2,18.7,146.7,19.9,145.7,20.9z M145.2,14.1
		c-0.9-0.9-1.9-1.4-3.2-1.4c-1.2,0-2.3,0.5-3.2,1.4c-0.9,0.9-1.3,2-1.3,3.2c0,1.2,0.5,2.3,1.3,3.2c0.9,0.9,2,1.3,3.2,1.3
		c1.2,0,2.3-0.5,3.2-1.3c0.9-0.9,1.3-2,1.3-3.2C146.6,16,146.1,15,145.2,14.1z"/>
	<path class="st0" d="M159.1,19.1c-0.4,1-1,1.8-1.9,2.5c-0.9,0.6-1.9,0.9-3,0.9c-0.6,0-1.4-0.2-2.4-0.6c-1-0.4-1.9-1.4-2.4-2.6
		l0.6-0.2c0.3,0.8,0.9,1.5,1.7,2c0.8,0.5,1.6,0.8,2.5,0.8c1.9,0,3.3-1.1,4.1-2.5l-8.9-3.9c0.4-1,1-1.8,1.9-2.4c0.9-0.6,1.9-1,3-1
		c1.7,0,3.4,0.9,4.3,2.3l-0.5,0.4c-0.9-1.4-2.4-2.1-3.8-2.1c-0.8,0-1.6,0.2-2.4,0.7c-0.7,0.5-1.3,1-1.6,1.8L159.1,19.1z"/>
	<path class="st0" d="M57.5,41.5h-0.8l6.2-13.7l6.2,13.7h-0.8l-2.2-4.9h-6.4L57.5,41.5z M62.9,29.5L60,36h5.8L62.9,29.5z"/>
	<path class="st0" d="M71.9,41.5h-0.7v-14h0.7V41.5z"/>
	<path class="st0" d="M80.4,28.2c-2.4,0-4.1,1.2-4.4,3.3h2.1v0.7h-2.2v9.4h-0.6v-9.4c0-1.4,0.5-2.5,1.4-3.4c1-0.8,2.2-1.3,3.6-1.3
		V28.2z"/>
	<path class="st0" d="M89.2,40.2c-1,1-2.2,1.5-3.6,1.5c-1.4,0-2.6-0.5-3.7-1.5c-1-1-1.5-2.2-1.5-3.7c0-1.4,0.5-2.6,1.5-3.6
		c1-1,2.2-1.5,3.7-1.5c1.4,0,2.6,0.5,3.6,1.5c1,1,1.5,2.2,1.5,3.6C90.7,38,90.2,39.2,89.2,40.2z M88.8,33.3
		c-0.9-0.9-1.9-1.4-3.2-1.4c-1.2,0-2.3,0.5-3.2,1.4c-0.9,0.9-1.3,2-1.3,3.2c0,1.2,0.5,2.3,1.3,3.2c0.9,0.9,2,1.3,3.2,1.3
		c1.2,0,2.3-0.5,3.2-1.3c0.9-0.9,1.3-2,1.3-3.2C90.1,35.3,89.7,34.2,88.8,33.3z"/>
	<path class="st0" d="M103.7,41.5H103v-5c0-1.2-0.5-2.3-1.4-3.2c-0.9-0.9-2-1.4-3.2-1.4c-1.2,0-2.3,0.5-3.2,1.4
		c-0.9,0.9-1.4,1.9-1.4,3.2v5h-0.7v-5c0-1.4,0.5-2.6,1.5-3.6c1-1,2.3-1.5,3.7-1.5c1.4,0,2.7,0.5,3.7,1.5c1,1,1.6,2.2,1.6,3.6V41.5z"
		/>
	<path class="st0" d="M115.9,41.5h-10.4l8.8-9.3h-8.1v-0.6h9.6l-8.8,9.3h8.9V41.5z"/>
	<path class="st0" d="M126.2,40.2c-1,1-2.2,1.5-3.6,1.5c-1.4,0-2.6-0.5-3.7-1.5c-1-1-1.5-2.2-1.5-3.7c0-1.4,0.5-2.6,1.5-3.6
		c1-1,2.2-1.5,3.7-1.5c1.4,0,2.6,0.5,3.6,1.5c1,1,1.5,2.2,1.5,3.6C127.7,38,127.2,39.2,126.2,40.2z M125.7,33.3
		c-0.9-0.9-1.9-1.4-3.2-1.4c-1.2,0-2.3,0.5-3.2,1.4c-0.9,0.9-1.3,2-1.3,3.2c0,1.2,0.5,2.3,1.3,3.2c0.9,0.9,2,1.3,3.2,1.3
		c1.2,0,2.3-0.5,3.2-1.3c0.9-0.9,1.3-2,1.3-3.2C127.1,35.3,126.6,34.2,125.7,33.3z"/>
</g>
<path class="st1" d="M43.5,8.1H17.4L9.1,18.4l22.1,23.5l21.2-23.6L43.5,8.1z M48.8,17.3h-6.2l0.8-6.2L48.8,17.3z M39.9,19.3
	l-8.7,18.8l-9.9-18.8H39.9z M18.9,19.3l7.9,14.9l-14-14.9H18.9z M12.6,17.3l4.8-6l1.1,6H12.6z M36.7,10.1h4.8l-0.7,5.6L36.7,10.1z
	 M39.5,17.3H21.7l5.9-7.2h6.6L39.5,17.3z M19.2,10.1H25L20.2,16L19.2,10.1z M48.8,19.3L35,34.7l7.1-15.4H48.8z"/>
</svg>
