<?xml version="1.0" encoding="utf-8"?>
<!-- Generator: Adobe Illustrator 24.0.2, SVG Export Plug-In . SVG Version: 6.00 Build 0)  -->
<svg version="1.1" id="Capa_1" xmlns="http://www.w3.org/2000/svg" xmlns:xlink="http://www.w3.org/1999/xlink" x="0px" y="0px"
	 viewBox="0 0 170 50" style="enable-background:new 0 0 170 50;" xml:space="preserve">
<style type="text/css">
	.st0{fill:#727376;}
</style>
<g id="Capa_x0020_1">
	<g id="_2064432118752">
		<path d="M24,17.7c0-1.7,0.3-3.3,1-4.9c0.6-1.5,1.5-2.9,2.7-4c1.1-1.1,2.5-2,4-2.7c1.5-0.7,3.1-1,4.9-1c1.7,0,3.3,0.3,4.9,1
			c1.5,0.6,2.9,1.5,4,2.7c1.1,1.1,2,2.5,2.7,4c0.7,1.5,1,3.1,1,4.9c0,1.7-0.3,3.4-1,4.9c-0.6,1.5-1.5,2.8-2.7,4
			c-1.1,1.1-2.5,2-4,2.7c-1.5,0.7-3.1,1-4.9,1c-1.7,0-3.4-0.3-4.9-1c-1.5-0.6-2.8-1.5-4-2.7c-1.1-1.1-2-2.5-2.7-4S24,19.4,24,17.7z
			 M26.6,17.7c0,1.4,0.3,2.7,0.8,3.9s1.2,2.3,2.1,3.2c0.9,0.9,2,1.6,3.2,2.2c1.2,0.5,2.5,0.8,3.9,0.8c1.4,0,2.7-0.3,3.9-0.8
			c1.2-0.5,2.3-1.2,3.2-2.2c0.9-0.9,1.6-2,2.1-3.2c0.5-1.2,0.8-2.5,0.8-3.9c0-1.4-0.3-2.7-0.8-3.9s-1.2-2.3-2.1-3.2
			c-0.9-0.9-1.9-1.6-3.2-2.2c-1.2-0.5-2.5-0.8-3.9-0.8c-1.4,0-2.7,0.3-3.9,0.8c-1.2,0.5-2.3,1.3-3.2,2.2c-0.9,0.9-1.6,2-2.1,3.2
			S26.6,16.3,26.6,17.7z M56.9,25.1c0.8,0.9,1.7,1.5,2.6,2c0.9,0.4,1.8,0.6,2.6,0.6c0.7,0,1.3-0.1,1.8-0.3c0.5-0.2,1-0.5,1.4-0.9
			c0.4-0.4,0.7-0.8,0.9-1.3c0.2-0.5,0.3-1,0.3-1.5c0-1-0.3-1.8-0.8-2.5c-0.5-0.7-1.2-1.3-2-1.8c-0.8-0.5-1.6-1-2.5-1.4
			c-0.9-0.4-1.7-1-2.5-1.6c-0.8-0.6-1.4-1.3-2-2.1c-0.5-0.8-0.8-1.8-0.8-3c0-0.9,0.2-1.7,0.5-2.5c0.4-0.8,0.8-1.4,1.4-2
			c0.6-0.6,1.3-1,2.1-1.3c0.8-0.3,1.6-0.5,2.5-0.5c1.1,0,2.2,0.2,3.2,0.6c1,0.4,1.9,1.1,2.7,2l-1.6,1.9c-0.6-0.7-1.3-1.2-2-1.5
			c-0.7-0.3-1.5-0.5-2.2-0.5c-0.6,0-1.1,0.1-1.6,0.3c-0.5,0.2-0.9,0.5-1.2,0.8c-0.3,0.3-0.6,0.7-0.8,1.1c-0.2,0.4-0.3,0.9-0.3,1.3
			c0,0.9,0.3,1.6,0.8,2.2c0.5,0.6,1.2,1.1,2,1.6c0.8,0.5,1.6,0.9,2.5,1.4c0.9,0.5,1.7,1,2.5,1.6c0.8,0.6,1.4,1.4,2,2.3
			c0.5,0.9,0.8,2,0.8,3.3c0,1-0.2,1.8-0.6,2.7c-0.4,0.8-0.9,1.5-1.5,2.1c-0.6,0.6-1.4,1-2.3,1.4c-0.9,0.3-1.9,0.5-2.9,0.5
			c-0.7,0-1.3-0.1-2-0.2c-0.6-0.2-1.2-0.4-1.8-0.7c-0.6-0.3-1.1-0.6-1.5-1c-0.5-0.4-0.8-0.8-1.2-1.3C55.4,27,56.9,25.1,56.9,25.1z
			 M73,5.5h3l10.7,19.6l9.8-19.6h3L86.6,30.4L73,5.5z M112.6,5l12.8,24.9h-3l-3.1-6.3h-13.9l-3.4,6.3h-3C99,29.8,112.6,5,112.6,5z
			 M106.7,21.2H118l-5.5-10.9L106.7,21.2z M146,29.8h-13.3V5.5h2.6v21.9H146C146,27.4,146,29.8,146,29.8z"/>
		<path class="st0" d="M46.8,40.7h-3.5v4.2h-1v-9h1v3.9h3.5V36h1v9h-1V40.7z M54.7,35.8l4.7,9.2h-1.1l-1.2-2.3h-5.1l-1.2,2.3h-1.1
			C49.7,44.9,54.7,35.8,54.7,35.8z M52.5,41.7h4.2l-2-4L52.5,41.7z M70.6,36v4.5c0,0.6-0.1,1.2-0.4,1.8c-0.2,0.6-0.6,1.1-1,1.5
			c-0.4,0.4-0.9,0.8-1.5,1C67.2,44.9,66.6,45,66,45c-0.6,0-1.2-0.1-1.8-0.4c-0.6-0.2-1-0.6-1.5-1c-0.4-0.4-0.7-0.9-1-1.5
			c-0.2-0.6-0.4-1.2-0.4-1.8V36h1v4.5c0,0.5,0.1,1,0.3,1.4c0.2,0.4,0.5,0.8,0.8,1.2c0.3,0.3,0.7,0.6,1.2,0.8
			c0.4,0.2,0.9,0.3,1.4,0.3s1-0.1,1.4-0.3c0.4-0.2,0.8-0.5,1.2-0.8c0.3-0.3,0.6-0.7,0.8-1.2c0.2-0.4,0.3-0.9,0.3-1.4V36
			C69.6,36,70.6,36,70.6,36z M75,44.9v-8.1h-2.4V36h5.8v0.9H76v8.1C76,44.9,75,44.9,75,44.9z M85.6,44v0.9h-4.9v-9h4.9v0.9h-4v3h2.8
			v0.9h-2.8V44C81.7,44,85.6,44,85.6,44z M91.5,43.2c0.3,0.3,0.6,0.6,0.9,0.7c0.3,0.1,0.7,0.2,1,0.2c0.2,0,0.5,0,0.7-0.1
			c0.2-0.1,0.4-0.2,0.5-0.3c0.1-0.1,0.3-0.3,0.3-0.5c0.1-0.2,0.1-0.4,0.1-0.6c0-0.4-0.1-0.7-0.3-0.9s-0.4-0.5-0.7-0.7
			c-0.3-0.2-0.6-0.4-0.9-0.5c-0.3-0.2-0.6-0.4-0.9-0.6c-0.3-0.2-0.5-0.5-0.7-0.8c-0.2-0.3-0.3-0.7-0.3-1.1c0-0.3,0.1-0.6,0.2-0.9
			c0.1-0.3,0.3-0.5,0.5-0.7c0.2-0.2,0.5-0.4,0.8-0.5c0.3-0.1,0.6-0.2,0.9-0.2c0.4,0,0.8,0.1,1.2,0.2c0.4,0.1,0.7,0.4,1,0.7l-0.6,0.7
			c-0.2-0.3-0.5-0.4-0.8-0.6c-0.3-0.1-0.5-0.2-0.8-0.2c-0.2,0-0.4,0-0.6,0.1c-0.2,0.1-0.3,0.2-0.4,0.3c-0.1,0.1-0.2,0.3-0.3,0.4
			c-0.1,0.2-0.1,0.3-0.1,0.5c0,0.3,0.1,0.6,0.3,0.8c0.2,0.2,0.4,0.4,0.7,0.6c0.3,0.2,0.6,0.3,0.9,0.5c0.3,0.2,0.6,0.4,0.9,0.6
			c0.3,0.2,0.5,0.5,0.7,0.8c0.2,0.3,0.3,0.7,0.3,1.2c0,0.4-0.1,0.7-0.2,1s-0.3,0.6-0.6,0.8c-0.2,0.2-0.5,0.4-0.8,0.5
			C94,45,93.7,45,93.3,45c-0.2,0-0.5,0-0.7-0.1c-0.2-0.1-0.5-0.1-0.7-0.2c-0.2-0.1-0.4-0.2-0.6-0.4c-0.2-0.1-0.3-0.3-0.4-0.5
			C90.9,43.9,91.5,43.2,91.5,43.2z M99.9,44.9v-8.1h-2.4V36h5.8v0.9h-2.4v8.1H99.9z M109.3,41.3v3.6h-1v-3.6l-4-5.3h1.2l3.3,4.4
			l3.4-4.4h1.2C113.4,36,109.3,41.3,109.3,41.3z M120.4,44.9h-4.9v-9h1V44h4V44.9z M127.6,44v0.9h-4.9v-9h4.9v0.9h-4v3h2.9v0.9h-2.9
			V44C123.6,44,127.6,44,127.6,44z"/>
	</g>
</g>
</svg>
