<?xml version="1.0" encoding="utf-8"?>
<!-- Generator: Adobe Illustrator 24.0.2, SVG Export Plug-In . SVG Version: 6.00 Build 0)  -->
<svg version="1.1" id="Capa_1" xmlns="http://www.w3.org/2000/svg" xmlns:xlink="http://www.w3.org/1999/xlink" x="0px" y="0px"
	 viewBox="0 0 170 50" style="enable-background:new 0 0 170 50;" xml:space="preserve">
<style type="text/css">
	.st0{fill:#03AB49;}
	.st1{fill:#4D4D4D;}
</style>
<g>
	<path class="st0" d="M129,17c0-2.8,0-5.6,0-8.5c0-0.2,0-0.2,0.2-0.2c2.1,0,4.2,0,6.3,0c1.1,0,2.1,0.1,3.1,0.5
		c0.8,0.3,1.4,0.7,2.1,1.2c1,0.8,1.8,1.8,2.3,3c0.3,0.7,0.5,1.4,0.6,2.1c0.1,0.6,0.2,1.2,0.2,1.8c0,0.4,0,0.7,0,1.1
		c-0.1,1.1-0.3,2.2-0.7,3.3c-0.3,0.8-0.8,1.4-1.3,2.1c-0.7,0.8-1.5,1.4-2.5,1.8c-0.7,0.3-1.3,0.5-2,0.6c-0.5,0.1-1,0.1-1.5,0.1
		c-2.1,0-4.3,0-6.4,0c-0.3,0-0.2,0-0.2-0.3C129,22.7,129,19.8,129,17z M131,23.7c0.1,0,0.1,0,0.2,0c1.5,0,3,0,4.5,0
		c0.4,0,0.7,0,1.1-0.1c0.6-0.1,1.2-0.2,1.8-0.5c0.7-0.3,1.3-0.8,1.7-1.4c0.5-0.5,0.8-1.1,1-1.8c0.3-1,0.5-2,0.4-3
		c0-0.4,0-0.9-0.1-1.3c-0.1-0.7-0.3-1.3-0.6-1.9c-0.4-0.8-0.9-1.5-1.6-2.1c-0.5-0.4-1.1-0.7-1.7-1c-0.7-0.2-1.5-0.3-2.2-0.3
		c-1.5,0-3,0-4.4,0c-0.1,0-0.1,0-0.2,0C131,14.8,131,19.3,131,23.7z"/>
	<path class="st1" d="M72.7,17c0-0.4,0-0.9,0.1-1.4c0.1-0.9,0.3-1.9,0.7-2.7c0.3-0.8,0.8-1.5,1.3-2.2c0.8-0.9,1.7-1.7,2.8-2.2
		c0.6-0.3,1.3-0.5,2-0.5C79.9,8,80.2,8,80.5,8c0.3,0,0.6,0,0.9,0c0.7,0.1,1.4,0.2,2,0.4C84,8.6,84.5,8.9,85,9.3
		c0.3,0.2,0.5,0.4,0.8,0.6c0.6,0.5,1.1,1.1,1.5,1.8c0.5,0.7,0.8,1.5,1,2.3c0.1,0.5,0.2,1,0.3,1.5c0,0.3,0.1,0.5,0.1,0.8
		c0,0.3,0,0.6,0,0.9c0,1.2-0.2,2.5-0.6,3.6c-0.3,0.9-0.7,1.7-1.3,2.4c-0.3,0.4-0.6,0.7-1,1.1C85,25,84,25.6,82.9,25.9
		c-0.5,0.1-0.9,0.2-1.4,0.2c-0.5,0-1,0.1-1.5,0c-0.9-0.1-1.7-0.3-2.6-0.7c-0.6-0.3-1.2-0.7-1.8-1.2c-0.8-0.7-1.4-1.4-1.8-2.3
		c-0.4-0.8-0.8-1.7-0.9-2.6c-0.1-0.5-0.1-1-0.2-1.5C72.7,17.6,72.7,17.4,72.7,17z M74.7,17.1c0,0.5,0.1,1,0.1,1.5
		c0.1,0.6,0.3,1.2,0.5,1.8c0.3,0.7,0.6,1.3,1.1,1.8c0.4,0.5,0.9,0.9,1.4,1.2c0.7,0.4,1.5,0.7,2.3,0.7c0.5,0,1,0,1.5-0.1
		c0.5,0,0.9-0.2,1.3-0.4c0.8-0.3,1.4-0.9,2-1.5c0.4-0.5,0.8-1.1,1.1-1.7c0.5-1,0.6-2.1,0.7-3.2c0-0.3,0-0.5,0-0.8
		c-0.1-0.5-0.1-1-0.2-1.5c-0.3-1.1-0.8-2.2-1.5-3c-0.5-0.6-1.1-1.1-1.8-1.4c-0.8-0.4-1.6-0.5-2.4-0.5c-0.4,0-0.7,0.1-1.1,0.1
		c-0.6,0.1-1.2,0.3-1.7,0.6c-0.6,0.4-1.1,0.9-1.6,1.4c-0.5,0.6-0.8,1.2-1.1,1.9C74.9,15.1,74.7,16.1,74.7,17.1z"/>
	<path class="st1" d="M54.4,8.3c0.7,0,1.3,0,2,0c0,5.8,0,11.6,0,17.4c-0.3,0-0.7,0-1,0c-0.1,0-0.1-0.1-0.2-0.2c-0.5-0.7-1-1.3-1.6-2
		c-0.5-0.6-1-1.3-1.5-1.9c-0.4-0.5-0.8-1.1-1.2-1.6c-0.4-0.5-0.8-1.1-1.2-1.6c-0.4-0.6-0.9-1.1-1.3-1.7c-0.4-0.5-0.8-1-1.1-1.5
		c-0.5-0.6-1-1.3-1.5-1.9c-0.1-0.2-0.2-0.3-0.4-0.5c0,4.3,0,8.6,0,12.9c-0.7,0-1.3,0-1.9,0c0-5.8,0-11.6,0-17.4c0.3,0,0.6,0,1,0
		c0,0,0.1,0.1,0.1,0.1c0.6,0.7,1.1,1.4,1.7,2.1c0.4,0.6,0.8,1.1,1.3,1.7c0.4,0.5,0.8,1,1.1,1.5c0.3,0.4,0.6,0.8,0.9,1.1
		c0.4,0.5,0.8,1,1.1,1.5c0.3,0.4,0.6,0.8,1,1.3c0.4,0.5,0.8,1,1.1,1.5c0.3,0.4,0.6,0.8,1,1.3c0.2,0.3,0.4,0.6,0.7,0.9
		c0,0,0,0,0.1,0.1C54.4,16.9,54.4,12.7,54.4,8.3z"/>
	<path class="st0" d="M149.1,10.4c0,1.7,0,3.4,0,5.1c0.1,0,0.1,0,0.2,0c1.9,0,3.8,0,5.8,0c0.2,0,0.2,0,0.2,0.2c0,0.5,0,1.1,0,1.6
		c0,0.2,0,0.2-0.2,0.2c-1.9,0-3.8,0-5.8,0c-0.1,0-0.1,0-0.2,0c0,2.1,0,4.2,0,6.3c0.1,0,0.1,0,0.2,0c3.5,0,7,0,10.5,0
		c0.2,0,0.2,0,0.2,0.2c0,0.5,0,1.1,0,1.6c0,0.1,0,0.2-0.2,0.2c-4.2,0-8.3,0-12.5,0c-0.1,0-0.2,0-0.2-0.2c0-5.7,0-11.4,0-17.1
		c0-0.1,0-0.2,0.2-0.2c4,0,7.9,0,11.9,0c0.1,0,0.2,0,0.2,0.2c0,0.5,0,1.1,0,1.6c0,0.2,0,0.2-0.2,0.2c-3.3,0-6.5,0-9.8,0
		C149.3,10.4,149.2,10.4,149.1,10.4z"/>
	<path class="st1" d="M10,8.3c0.1,0,0.1,0,0.2,0c2.9,0,5.7,0,8.6,0c0.8,0,1.6,0.1,2.3,0.4c0.6,0.3,1.2,0.7,1.6,1.2
		c0.5,0.6,0.8,1.3,0.9,2c0,0.2,0.1,0.5,0.1,0.7c0,0.3,0,0.6,0,0.9c0,0.6-0.2,1.2-0.4,1.8c-0.3,0.7-0.7,1.3-1.3,1.8
		c-0.5,0.5-1.1,0.7-1.8,0.9c-0.4,0.1-0.7,0.1-1.1,0.1c-2.3,0-4.6,0-6.9,0c-0.1,0-0.1,0-0.2,0c0,2.5,0,5.1,0,7.6c-0.6,0-1.3,0-1.9,0
		C10,19.9,10,14.1,10,8.3z M11.9,16.1c0.1,0,0.1,0,0.2,0c2.2,0,4.5,0,6.7,0c0.3,0,0.6,0,0.9-0.1c0.5-0.1,1-0.4,1.3-0.8
		c0.5-0.6,0.6-1.3,0.6-2c0-0.2,0-0.5-0.1-0.7c-0.2-0.8-0.6-1.4-1.3-1.7c-0.5-0.3-1.1-0.3-1.6-0.3c-2.2,0-4.4,0-6.6,0
		c-0.1,0-0.1,0-0.2,0C11.9,12.3,11.9,14.2,11.9,16.1z"/>
	<path class="st1" d="M26.4,8.3c0.7,0,1.3,0,1.9,0c0,0.1,0,0.1,0,0.2c0,3.8,0,7.6,0,11.3c0,0.8,0.1,1.7,0.4,2.5
		c0.3,0.7,0.7,1.2,1.4,1.4c0.5,0.2,1.1,0.3,1.6,0.3c0.6,0,1.2,0.1,1.8,0c0.7,0,1.4-0.1,2-0.4c0.7-0.3,1.1-0.8,1.3-1.5
		c0.1-0.4,0.2-0.9,0.3-1.3c0.1-0.5,0.1-1,0.1-1.5c0-3.6,0-7.3,0-10.9c0-0.1,0-0.1,0-0.2c0.7,0,1.3,0,2,0c0,0.1,0,0.1,0,0.2
		c0,4.1,0,8.2,0,12.3c0,0.4-0.1,0.8-0.2,1.2c-0.1,0.6-0.3,1.2-0.6,1.7c-0.4,0.7-0.9,1.2-1.5,1.5c-0.7,0.4-1.4,0.6-2.1,0.7
		c-0.9,0.2-1.9,0.1-2.8,0.1c-0.9,0-1.8-0.2-2.7-0.5c-1.1-0.4-1.9-1.2-2.3-2.3c-0.2-0.6-0.4-1.1-0.4-1.7c0-0.6-0.1-1.2-0.1-1.7
		c0-3.8,0-7.5,0-11.3C26.4,8.5,26.4,8.4,26.4,8.3z"/>
	<path class="st0" d="M104.5,13.3c-0.2-0.3-0.3-0.6-0.5-0.9c-0.9-1.2-2-2-3.5-2.3c-0.3-0.1-0.6-0.1-0.9-0.1
		c-0.8-0.1-1.7,0.1-2.4,0.4c-0.5,0.2-0.9,0.5-1.3,0.8c-0.7,0.6-1.3,1.3-1.7,2.1c-0.3,0.6-0.5,1.3-0.7,2c-0.1,0.5-0.1,1-0.1,1.5
		c0,0.4,0,0.8,0,1.2c0.1,0.8,0.3,1.6,0.6,2.3c0.4,0.9,1,1.7,1.7,2.4c0.7,0.6,1.6,1,2.5,1.2c0.6,0.1,1.1,0.1,1.7,0.1
		c0.6,0,1.2-0.2,1.7-0.4c0.6-0.3,1.1-0.6,1.6-1c0.6-0.5,1-1.1,1.4-1.7c0.1-0.2,0.3-0.5,0.4-0.8c0.2,0.1,0.3,0.2,0.5,0.4
		c0.3,0.3,0.6,0.6,1,0.8c0.1,0.1,0.1,0.1,0,0.2c-0.3,0.6-0.7,1.3-1.1,1.8c-0.5,0.6-1.1,1.2-1.8,1.6c-0.8,0.5-1.6,0.9-2.6,1
		c-0.7,0.2-1.5,0.2-2.3,0.1c-1.5-0.1-2.8-0.6-3.9-1.5c-0.9-0.7-1.6-1.5-2.2-2.5c-0.5-0.9-0.8-1.8-1-2.7c-0.1-0.4-0.1-0.9-0.2-1.3
		c0-0.3-0.1-0.7-0.1-1c0-0.3,0-0.7,0.1-1c0.1-0.5,0.1-1,0.2-1.4c0.1-0.7,0.3-1.3,0.6-1.9c0.3-0.7,0.7-1.3,1.1-1.9
		c0.6-0.8,1.4-1.5,2.3-2c0.8-0.4,1.6-0.7,2.5-0.9C98.3,8,98.6,8,98.9,8c0.3,0,0.6,0,0.9,0c0.6,0,1.2,0.1,1.7,0.3
		c0.7,0.2,1.4,0.5,2.1,1c0.5,0.3,0.9,0.7,1.3,1.1c0.4,0.5,0.8,1,1.2,1.6c0.1,0.1,0.1,0.2,0,0.3C105.5,12.5,105,12.9,104.5,13.3
		C104.5,13.3,104.5,13.3,104.5,13.3z"/>
	<path class="st1" d="M64.7,10.4c-2.2,0-4.3,0-6.5,0c0-0.7,0-1.3,0-2c5,0,9.9,0,14.9,0c0,0.7,0,1.3,0,2c-2.2,0-4.3,0-6.5,0
		c0,5.1,0,10.2,0,15.4c-0.7,0-1.3,0-2,0C64.7,20.6,64.7,15.5,64.7,10.4z"/>
	<path class="st0" d="M116,8.1c0,0.1,0,0.1,0,0.2c0,0.9,0,1.7,0,2.6c0,0.5-0.2,0.8-0.6,1.1c0,0,0,0-0.1,0.1
		c-0.4,0.4-0.8,0.8-1.3,1.2c-0.5,0.5-1,1-1.5,1.4c-0.4,0.4-0.9,0.9-1.3,1.3c-0.4,0.4-0.7,0.8-1.2,1c-0.1,0.1-0.1,0.1,0,0.2
		c0.5,0.4,1,0.8,1.5,1.3c0.5,0.4,0.9,0.9,1.3,1.3c0.5,0.4,0.9,0.9,1.4,1.3c0.4,0.4,0.8,0.8,1.2,1.1c0.2,0.2,0.4,0.4,0.5,0.7
		c0,0.1,0.1,0.2,0.1,0.4c0,0.9,0,1.7,0,2.6c0,0.1,0,0.1,0,0.2c-0.1-0.1-0.2-0.2-0.3-0.2c-0.3-0.3-0.6-0.6-0.9-0.9
		c-0.5-0.5-1-0.9-1.4-1.4c-0.4-0.4-0.8-0.8-1.2-1.2c-0.5-0.5-1.1-1.1-1.6-1.6c-0.5-0.4-0.9-0.9-1.4-1.3c-0.4-0.4-0.8-0.9-1.3-1.3
		c-0.4-0.4-0.4-0.8-0.4-1.3c0.1-0.7,0.5-1.2,1.1-1.7c0,0,0,0,0,0c0.4-0.4,0.8-0.8,1.2-1.2c0.3-0.3,0.7-0.7,1-1c0.3-0.3,0.7-0.7,1-1
		c0.6-0.5,1.1-1.1,1.7-1.6c0.5-0.5,1-1,1.5-1.4C115.4,8.7,115.7,8.4,116,8.1z"/>
	<path class="st0" d="M119,26.2c0-0.9,0-1.8,0-2.7c0-0.4,0.1-0.8,0.5-1.1c0.5-0.5,1.1-1,1.6-1.5c0.4-0.4,0.8-0.8,1.2-1.2
		c0.4-0.4,0.9-0.8,1.3-1.3c0.4-0.4,0.8-0.7,1.2-1c0.1-0.1,0.1-0.1,0.2-0.1c-0.2-0.1-0.3-0.3-0.4-0.4c-0.1-0.1-0.3-0.2-0.4-0.3
		c-0.4-0.4-0.8-0.8-1.2-1.1c-0.6-0.5-1.1-1.1-1.7-1.6c-0.5-0.5-1-0.9-1.4-1.4c-0.2-0.2-0.5-0.5-0.7-0.7c-0.2-0.2-0.2-0.5-0.2-0.7
		c0-0.9,0-1.7,0-2.6c0,0,0-0.1,0-0.2c0.2,0.2,0.4,0.3,0.5,0.5c0.8,0.7,1.5,1.5,2.2,2.2c0.5,0.5,1.1,1,1.6,1.6c0.5,0.5,1.1,1,1.6,1.6
		c0.5,0.5,1,0.9,1.4,1.4c0.2,0.2,0.5,0.5,0.7,0.7c0.2,0.2,0.3,0.5,0.3,0.8c0,0.3,0,0.6-0.1,0.9c-0.1,0.5-0.5,0.8-0.9,1.2
		c0,0-0.1,0-0.1,0.1c-0.5,0.5-1,1-1.5,1.5c-0.4,0.4-0.8,0.8-1.3,1.2c-0.5,0.5-1,0.9-1.4,1.4c-0.7,0.7-1.5,1.4-2.2,2.2
		C119.7,25.6,119.4,25.9,119,26.2z"/>
</g>
<g>
	<path class="st1" d="M27.6,39.4c-1.4,0-2.3-0.8-2.3-1.8H26c0.1,0.6,0.5,1.3,1.6,1.3c1,0,1.5-0.6,1.5-1.3c0-2-3.8-0.8-3.8-3.4
		c0-1.1,0.9-1.8,2.2-1.8c1.3,0,2.1,0.7,2.2,1.7H29c-0.1-0.5-0.5-1.1-1.5-1.1c-0.8,0-1.5,0.4-1.5,1.2c0,2,3.8,0.8,3.8,3.3
		C29.8,38.5,29.1,39.4,27.6,39.4z"/>
	<path class="st1" d="M33.5,39.5c-1.5,0-2.7-1.1-2.7-2.8c0-1.7,1.2-2.8,2.7-2.8c1.5,0,2.7,1.1,2.7,2.8C36.2,38.4,35,39.5,33.5,39.5z
		 M33.5,38.8c1,0,2-0.7,2-2.2s-1-2.2-2-2.2s-2,0.7-2,2.2S32.5,38.8,33.5,38.8z"/>
	<path class="st1" d="M37.5,32.1h0.7v7.3h-0.7V32.1z"/>
	<path class="st1" d="M44.4,39.4h-0.7v-0.9c-0.3,0.7-1,1-1.8,1c-1.2,0-2.2-0.8-2.2-2.3V34h0.7V37c0,1.2,0.7,1.8,1.6,1.8
		c1,0,1.7-0.6,1.7-1.9V34h0.7V39.4z"/>
	<path class="st1" d="M48.3,33.9c1.4,0,2.2,0.7,2.5,1.8h-0.7c-0.2-0.8-0.8-1.2-1.7-1.2c-1.1,0-1.9,0.7-1.9,2.2
		c0,1.5,0.9,2.2,1.9,2.2c0.9,0,1.6-0.5,1.7-1.3h0.7c-0.2,1.1-1.1,1.8-2.5,1.8c-1.5,0-2.6-1.1-2.6-2.8S46.8,33.9,48.3,33.9z"/>
	<path class="st1" d="M51.9,32.4c0-0.3,0.2-0.5,0.5-0.5c0.3,0,0.5,0.2,0.5,0.5c0,0.3-0.2,0.5-0.5,0.5C52.1,33,51.9,32.7,51.9,32.4z
		 M52.1,34h0.7v5.4h-0.7V34z"/>
	<path class="st1" d="M56.7,39.5c-1.5,0-2.7-1.1-2.7-2.8c0-1.7,1.2-2.8,2.7-2.8c1.5,0,2.7,1.1,2.7,2.8
		C59.4,38.4,58.2,39.5,56.7,39.5z M56.7,38.8c1,0,2-0.7,2-2.2s-1-2.2-2-2.2s-2,0.7-2,2.2S55.7,38.8,56.7,38.8z"/>
	<path class="st1" d="M64.7,36.3c0-1.2-0.7-1.8-1.6-1.8c-1,0-1.7,0.6-1.7,1.9v2.9h-0.7V34h0.7v0.9c0.3-0.7,1-1,1.8-1
		c1.2,0,2.2,0.8,2.2,2.3v3.2h-0.7V36.3z"/>
	<path class="st1" d="M69.3,39.5c-1.5,0-2.6-1.1-2.6-2.8c0-1.7,1.1-2.8,2.6-2.8c1.6,0,2.6,1.1,2.6,2.5c0,0.2,0,0.4,0,0.5h-4.5
		c0.1,1.3,0.9,1.9,1.9,1.9c0.9,0,1.5-0.5,1.7-1.2h0.7C71.5,38.7,70.6,39.5,69.3,39.5z M67.3,36.4h3.8c0-1.3-0.9-1.9-1.9-1.9
		C68.3,34.5,67.4,35.1,67.3,36.4z"/>
	<path class="st1" d="M74.9,39.5c-1.2,0-2.1-0.6-2.2-1.6h0.7c0.1,0.6,0.6,1,1.5,1c0.8,0,1.2-0.4,1.2-0.9c0-1.3-3.2-0.6-3.2-2.6
		c0-0.8,0.8-1.5,1.9-1.5c1.2,0,1.9,0.6,2,1.7h-0.7c0-0.6-0.5-1.1-1.3-1.1c-0.7,0-1.2,0.4-1.2,0.9c0,1.5,3.2,0.7,3.2,2.6
		C76.8,38.8,76.1,39.5,74.9,39.5z"/>
	<path class="st1" d="M80.3,32.5h4.5V33H83v6.3h-0.7V33h-1.9V32.5z"/>
	<path class="st1" d="M88.3,39.5c-1.5,0-2.7-1.1-2.7-2.8c0-1.7,1.1-2.8,2.7-2.8c1.6,0,2.6,1.1,2.6,2.5c0,0.2,0,0.4,0,0.5h-4.5
		c0.1,1.3,0.9,1.9,1.9,1.9c0.9,0,1.5-0.5,1.7-1.2h0.7C90.5,38.7,89.7,39.5,88.3,39.5z M86.4,36.4h3.8c0-1.3-0.9-1.9-1.9-1.9
		C87.3,34.5,86.4,35.1,86.4,36.4z"/>
	<path class="st1" d="M94.4,33.9c1.4,0,2.2,0.7,2.5,1.8h-0.7c-0.2-0.8-0.8-1.2-1.7-1.2c-1.1,0-1.9,0.7-1.9,2.2
		c0,1.5,0.9,2.2,1.9,2.2c0.9,0,1.6-0.5,1.7-1.3h0.7c-0.2,1.1-1.1,1.8-2.5,1.8c-1.5,0-2.6-1.1-2.6-2.8S92.9,33.9,94.4,33.9z"/>
	<path class="st1" d="M102.2,36.3c0-1.2-0.7-1.8-1.6-1.8c-1,0-1.7,0.6-1.7,1.9v2.9h-0.7V34h0.7v0.9c0.3-0.7,1-1,1.8-1
		c1.2,0,2.2,0.8,2.2,2.3v3.2h-0.7V36.3z"/>
	<path class="st1" d="M106.8,39.5c-1.5,0-2.7-1.1-2.7-2.8c0-1.7,1.2-2.8,2.7-2.8c1.5,0,2.7,1.1,2.7,2.8
		C109.5,38.4,108.3,39.5,106.8,39.5z M106.8,38.8c1,0,2-0.7,2-2.2s-1-2.2-2-2.2s-2,0.7-2,2.2S105.8,38.8,106.8,38.8z"/>
	<path class="st1" d="M110.8,32.1h0.7v7.3h-0.7V32.1z"/>
	<path class="st1" d="M115.4,39.5c-1.5,0-2.7-1.1-2.7-2.8c0-1.7,1.2-2.8,2.7-2.8c1.5,0,2.7,1.1,2.7,2.8
		C118.1,38.4,116.9,39.5,115.4,39.5z M115.4,38.8c1,0,2-0.7,2-2.2s-1-2.2-2-2.2s-2,0.7-2,2.2S114.4,38.8,115.4,38.8z M116.4,31.7
		v0.6l-2,1.2V33L116.4,31.7z"/>
	<path class="st1" d="M121.6,33.9c1.1,0,1.8,0.6,2.1,1.3V34h0.7v5.5c0,1.5-1,2.5-2.5,2.5c-1.4,0-2.4-0.7-2.6-1.8h0.7
		c0.2,0.7,0.9,1.2,1.9,1.2c1,0,1.8-0.7,1.8-1.9v-1.3c-0.3,0.7-1.1,1.3-2.1,1.3c-1.5,0-2.6-1.1-2.6-2.8
		C119.1,35,120.2,33.9,121.6,33.9z M121.8,34.5c-1.1,0-2,0.8-2,2.2c0,1.4,0.9,2.2,2,2.2c1.1,0,2-0.8,2-2.2S122.9,34.5,121.8,34.5z"
		/>
	<path class="st1" d="M125.9,32.4c0-0.3,0.2-0.5,0.5-0.5c0.3,0,0.5,0.2,0.5,0.5c0,0.3-0.2,0.5-0.5,0.5
		C126.1,33,125.9,32.7,125.9,32.4z M126.1,34h0.7v5.4h-0.7V34z"/>
	<path class="st1" d="M130.6,33.9c1.4,0,2.2,0.7,2.5,1.8h-0.7c-0.2-0.8-0.8-1.2-1.7-1.2c-1.1,0-1.9,0.7-1.9,2.2
		c0,1.5,0.9,2.2,1.9,2.2c0.9,0,1.6-0.5,1.7-1.3h0.7c-0.2,1.1-1.1,1.8-2.5,1.8c-1.5,0-2.6-1.1-2.6-2.8S129.1,33.9,130.6,33.9z"/>
	<path class="st1" d="M136.6,33.9c1.1,0,1.8,0.6,2.1,1.3V34h0.7v5.4h-0.7v-1.2c-0.3,0.7-1.1,1.3-2.1,1.3c-1.5,0-2.6-1.1-2.6-2.8
		C134.1,35,135.2,33.9,136.6,33.9z M136.8,34.5c-1.1,0-2,0.8-2,2.2c0,1.4,0.9,2.2,2,2.2c1.1,0,2-0.8,2-2.2S137.9,34.5,136.8,34.5z"
		/>
	<path class="st1" d="M142.9,39.5c-1.2,0-2.1-0.6-2.2-1.6h0.7c0.1,0.6,0.6,1,1.5,1c0.8,0,1.2-0.4,1.2-0.9c0-1.3-3.2-0.6-3.2-2.6
		c0-0.8,0.8-1.5,1.9-1.5c1.2,0,1.9,0.6,2,1.7H144c0-0.6-0.5-1.1-1.3-1.1c-0.7,0-1.2,0.4-1.2,0.9c0,1.5,3.2,0.7,3.2,2.6
		C144.8,38.8,144,39.5,142.9,39.5z"/>
</g>
</svg>
